ISO-10303-21;
HEADER;
/* Generated by software containing ST-Developer
 * from STEP Tools, Inc. (www.steptools.com) 
 */

FILE_DESCRIPTION(
/* description */ (''),
/* implementation_level */ '2;1');

FILE_NAME(
/* name */ 'shelf v1 v4.step',
/* time_stamp */ '2025-10-25T09:44:44+08:00',
/* author */ (''),
/* organization */ (''),
/* preprocessor_version */ 'ST-DEVELOPER v20.1',
/* originating_system */ 'Autodesk Translation Framework v14.17.0.0',
/* authorisation */ '');

FILE_SCHEMA (('AUTOMOTIVE_DESIGN { 1 0 10303 214 3 1 1 }'));
ENDSEC;

DATA;
#10=MECHANICAL_DESIGN_GEOMETRIC_PRESENTATION_REPRESENTATION('',(#13),#996);
#11=SHAPE_REPRESENTATION_RELATIONSHIP('SRR','None',#1003,#12);
#12=ADVANCED_BREP_SHAPE_REPRESENTATION('',(#14),#995);
#13=STYLED_ITEM('',(#1013),#14);
#14=MANIFOLD_SOLID_BREP('Body1',#622);
#15=CYLINDRICAL_SURFACE('',#661,3.50000000000001);
#16=FACE_BOUND('',#54,.T.);
#17=FACE_BOUND('',#83,.T.);
#18=CIRCLE('',#639,3.50000000000001);
#19=CIRCLE('',#662,3.50000000000001);
#20=FACE_OUTER_BOUND('',#51,.T.);
#21=FACE_OUTER_BOUND('',#52,.T.);
#22=FACE_OUTER_BOUND('',#53,.T.);
#23=FACE_OUTER_BOUND('',#55,.T.);
#24=FACE_OUTER_BOUND('',#56,.T.);
#25=FACE_OUTER_BOUND('',#57,.T.);
#26=FACE_OUTER_BOUND('',#58,.T.);
#27=FACE_OUTER_BOUND('',#59,.T.);
#28=FACE_OUTER_BOUND('',#60,.T.);
#29=FACE_OUTER_BOUND('',#61,.T.);
#30=FACE_OUTER_BOUND('',#62,.T.);
#31=FACE_OUTER_BOUND('',#63,.T.);
#32=FACE_OUTER_BOUND('',#64,.T.);
#33=FACE_OUTER_BOUND('',#65,.T.);
#34=FACE_OUTER_BOUND('',#66,.T.);
#35=FACE_OUTER_BOUND('',#67,.T.);
#36=FACE_OUTER_BOUND('',#68,.T.);
#37=FACE_OUTER_BOUND('',#69,.T.);
#38=FACE_OUTER_BOUND('',#70,.T.);
#39=FACE_OUTER_BOUND('',#71,.T.);
#40=FACE_OUTER_BOUND('',#72,.T.);
#41=FACE_OUTER_BOUND('',#73,.T.);
#42=FACE_OUTER_BOUND('',#74,.T.);
#43=FACE_OUTER_BOUND('',#75,.T.);
#44=FACE_OUTER_BOUND('',#76,.T.);
#45=FACE_OUTER_BOUND('',#77,.T.);
#46=FACE_OUTER_BOUND('',#78,.T.);
#47=FACE_OUTER_BOUND('',#79,.T.);
#48=FACE_OUTER_BOUND('',#80,.T.);
#49=FACE_OUTER_BOUND('',#81,.T.);
#50=FACE_OUTER_BOUND('',#82,.T.);
#51=EDGE_LOOP('',(#391,#392,#393,#394));
#52=EDGE_LOOP('',(#395,#396,#397,#398));
#53=EDGE_LOOP('',(#399,#400,#401,#402,#403,#404,#405,#406,#407,#408));
#54=EDGE_LOOP('',(#409));
#55=EDGE_LOOP('',(#410,#411,#412,#413));
#56=EDGE_LOOP('',(#414,#415,#416,#417));
#57=EDGE_LOOP('',(#418,#419,#420,#421));
#58=EDGE_LOOP('',(#422,#423,#424,#425));
#59=EDGE_LOOP('',(#426,#427,#428,#429));
#60=EDGE_LOOP('',(#430,#431,#432,#433));
#61=EDGE_LOOP('',(#434,#435,#436,#437));
#62=EDGE_LOOP('',(#438,#439,#440,#441,#442,#443,#444,#445));
#63=EDGE_LOOP('',(#446,#447,#448,#449,#450,#451));
#64=EDGE_LOOP('',(#452,#453,#454,#455));
#65=EDGE_LOOP('',(#456,#457,#458,#459));
#66=EDGE_LOOP('',(#460,#461,#462,#463));
#67=EDGE_LOOP('',(#464,#465,#466,#467));
#68=EDGE_LOOP('',(#468,#469,#470,#471));
#69=EDGE_LOOP('',(#472,#473,#474,#475));
#70=EDGE_LOOP('',(#476,#477,#478,#479,#480,#481,#482,#483,#484));
#71=EDGE_LOOP('',(#485,#486,#487,#488,#489,#490,#491,#492));
#72=EDGE_LOOP('',(#493,#494,#495,#496));
#73=EDGE_LOOP('',(#497,#498,#499,#500,#501,#502));
#74=EDGE_LOOP('',(#503,#504,#505,#506));
#75=EDGE_LOOP('',(#507,#508,#509,#510));
#76=EDGE_LOOP('',(#511,#512,#513,#514));
#77=EDGE_LOOP('',(#515,#516,#517,#518));
#78=EDGE_LOOP('',(#519,#520,#521,#522,#523,#524,#525,#526));
#79=EDGE_LOOP('',(#527,#528,#529,#530,#531,#532,#533,#534,#535));
#80=EDGE_LOOP('',(#536,#537,#538,#539,#540,#541,#542,#543));
#81=EDGE_LOOP('',(#544,#545,#546,#547));
#82=EDGE_LOOP('',(#548,#549,#550,#551,#552,#553,#554,#555,#556,#557,#558,
#559));
#83=EDGE_LOOP('',(#560));
#84=LINE('',#824,#167);
#85=LINE('',#826,#168);
#86=LINE('',#828,#169);
#87=LINE('',#829,#170);
#88=LINE('',#832,#171);
#89=LINE('',#834,#172);
#90=LINE('',#835,#173);
#91=LINE('',#838,#174);
#92=LINE('',#840,#175);
#93=LINE('',#842,#176);
#94=LINE('',#844,#177);
#95=LINE('',#846,#178);
#96=LINE('',#848,#179);
#97=LINE('',#850,#180);
#98=LINE('',#851,#181);
#99=LINE('',#856,#182);
#100=LINE('',#857,#183);
#101=LINE('',#861,#184);
#102=LINE('',#862,#185);
#103=LINE('',#863,#186);
#104=LINE('',#865,#187);
#105=LINE('',#869,#188);
#106=LINE('',#870,#189);
#107=LINE('',#871,#190);
#108=LINE('',#875,#191);
#109=LINE('',#877,#192);
#110=LINE('',#879,#193);
#111=LINE('',#880,#194);
#112=LINE('',#883,#195);
#113=LINE('',#885,#196);
#114=LINE('',#886,#197);
#115=LINE('',#889,#198);
#116=LINE('',#891,#199);
#117=LINE('',#892,#200);
#118=LINE('',#895,#201);
#119=LINE('',#897,#202);
#120=LINE('',#899,#203);
#121=LINE('',#901,#204);
#122=LINE('',#902,#205);
#123=LINE('',#905,#206);
#124=LINE('',#907,#207);
#125=LINE('',#909,#208);
#126=LINE('',#910,#209);
#127=LINE('',#914,#210);
#128=LINE('',#916,#211);
#129=LINE('',#918,#212);
#130=LINE('',#919,#213);
#131=LINE('',#923,#214);
#132=LINE('',#925,#215);
#133=LINE('',#927,#216);
#134=LINE('',#928,#217);
#135=LINE('',#931,#218);
#136=LINE('',#933,#219);
#137=LINE('',#934,#220);
#138=LINE('',#937,#221);
#139=LINE('',#939,#222);
#140=LINE('',#940,#223);
#141=LINE('',#943,#224);
#142=LINE('',#945,#225);
#143=LINE('',#946,#226);
#144=LINE('',#948,#227);
#145=LINE('',#949,#228);
#146=LINE('',#952,#229);
#147=LINE('',#953,#230);
#148=LINE('',#954,#231);
#149=LINE('',#956,#232);
#150=LINE('',#958,#233);
#151=LINE('',#960,#234);
#152=LINE('',#961,#235);
#153=LINE('',#963,#236);
#154=LINE('',#964,#237);
#155=LINE('',#967,#238);
#156=LINE('',#968,#239);
#157=LINE('',#971,#240);
#158=LINE('',#972,#241);
#159=LINE('',#974,#242);
#160=LINE('',#978,#243);
#161=LINE('',#981,#244);
#162=LINE('',#982,#245);
#163=LINE('',#984,#246);
#164=LINE('',#987,#247);
#165=LINE('',#988,#248);
#166=LINE('',#990,#249);
#167=VECTOR('',#673,10.);
#168=VECTOR('',#674,10.);
#169=VECTOR('',#675,10.);
#170=VECTOR('',#676,10.);
#171=VECTOR('',#679,10.);
#172=VECTOR('',#680,10.);
#173=VECTOR('',#681,10.);
#174=VECTOR('',#684,10.);
#175=VECTOR('',#685,10.);
#176=VECTOR('',#686,10.);
#177=VECTOR('',#687,10.);
#178=VECTOR('',#688,10.);
#179=VECTOR('',#689,10.);
#180=VECTOR('',#690,10.);
#181=VECTOR('',#691,10.);
#182=VECTOR('',#696,10.);
#183=VECTOR('',#697,10.);
#184=VECTOR('',#700,10.);
#185=VECTOR('',#701,10.);
#186=VECTOR('',#702,10.);
#187=VECTOR('',#705,10.);
#188=VECTOR('',#708,10.);
#189=VECTOR('',#709,10.);
#190=VECTOR('',#710,10.);
#191=VECTOR('',#713,10.);
#192=VECTOR('',#714,10.);
#193=VECTOR('',#715,10.);
#194=VECTOR('',#716,10.);
#195=VECTOR('',#719,10.);
#196=VECTOR('',#720,10.);
#197=VECTOR('',#721,10.);
#198=VECTOR('',#724,10.);
#199=VECTOR('',#725,10.);
#200=VECTOR('',#726,10.);
#201=VECTOR('',#729,10.);
#202=VECTOR('',#730,10.);
#203=VECTOR('',#731,10.);
#204=VECTOR('',#732,10.);
#205=VECTOR('',#733,10.);
#206=VECTOR('',#736,10.);
#207=VECTOR('',#737,10.);
#208=VECTOR('',#738,10.);
#209=VECTOR('',#739,10.);
#210=VECTOR('',#742,10.);
#211=VECTOR('',#743,10.);
#212=VECTOR('',#744,10.);
#213=VECTOR('',#745,10.);
#214=VECTOR('',#748,10.);
#215=VECTOR('',#749,10.);
#216=VECTOR('',#750,10.);
#217=VECTOR('',#751,10.);
#218=VECTOR('',#754,10.);
#219=VECTOR('',#755,10.);
#220=VECTOR('',#756,10.);
#221=VECTOR('',#759,10.);
#222=VECTOR('',#760,10.);
#223=VECTOR('',#761,10.);
#224=VECTOR('',#764,10.);
#225=VECTOR('',#765,10.);
#226=VECTOR('',#766,10.);
#227=VECTOR('',#769,10.);
#228=VECTOR('',#770,10.);
#229=VECTOR('',#773,10.);
#230=VECTOR('',#774,10.);
#231=VECTOR('',#775,10.);
#232=VECTOR('',#778,10.);
#233=VECTOR('',#779,10.);
#234=VECTOR('',#780,10.);
#235=VECTOR('',#781,10.);
#236=VECTOR('',#784,10.);
#237=VECTOR('',#785,10.);
#238=VECTOR('',#788,10.);
#239=VECTOR('',#789,10.);
#240=VECTOR('',#792,10.);
#241=VECTOR('',#793,10.);
#242=VECTOR('',#796,10.);
#243=VECTOR('',#801,3.50000000000001);
#244=VECTOR('',#804,10.);
#245=VECTOR('',#805,10.);
#246=VECTOR('',#808,10.);
#247=VECTOR('',#811,10.);
#248=VECTOR('',#812,10.);
#249=VECTOR('',#815,10.);
#250=VERTEX_POINT('',#822);
#251=VERTEX_POINT('',#823);
#252=VERTEX_POINT('',#825);
#253=VERTEX_POINT('',#827);
#254=VERTEX_POINT('',#831);
#255=VERTEX_POINT('',#833);
#256=VERTEX_POINT('',#837);
#257=VERTEX_POINT('',#839);
#258=VERTEX_POINT('',#841);
#259=VERTEX_POINT('',#843);
#260=VERTEX_POINT('',#845);
#261=VERTEX_POINT('',#847);
#262=VERTEX_POINT('',#849);
#263=VERTEX_POINT('',#852);
#264=VERTEX_POINT('',#855);
#265=VERTEX_POINT('',#859);
#266=VERTEX_POINT('',#860);
#267=VERTEX_POINT('',#867);
#268=VERTEX_POINT('',#868);
#269=VERTEX_POINT('',#873);
#270=VERTEX_POINT('',#874);
#271=VERTEX_POINT('',#876);
#272=VERTEX_POINT('',#878);
#273=VERTEX_POINT('',#882);
#274=VERTEX_POINT('',#884);
#275=VERTEX_POINT('',#888);
#276=VERTEX_POINT('',#890);
#277=VERTEX_POINT('',#894);
#278=VERTEX_POINT('',#896);
#279=VERTEX_POINT('',#898);
#280=VERTEX_POINT('',#900);
#281=VERTEX_POINT('',#904);
#282=VERTEX_POINT('',#906);
#283=VERTEX_POINT('',#908);
#284=VERTEX_POINT('',#912);
#285=VERTEX_POINT('',#913);
#286=VERTEX_POINT('',#915);
#287=VERTEX_POINT('',#917);
#288=VERTEX_POINT('',#921);
#289=VERTEX_POINT('',#922);
#290=VERTEX_POINT('',#924);
#291=VERTEX_POINT('',#926);
#292=VERTEX_POINT('',#930);
#293=VERTEX_POINT('',#932);
#294=VERTEX_POINT('',#936);
#295=VERTEX_POINT('',#938);
#296=VERTEX_POINT('',#942);
#297=VERTEX_POINT('',#944);
#298=VERTEX_POINT('',#951);
#299=VERTEX_POINT('',#957);
#300=VERTEX_POINT('',#959);
#301=VERTEX_POINT('',#966);
#302=VERTEX_POINT('',#970);
#303=VERTEX_POINT('',#976);
#304=VERTEX_POINT('',#980);
#305=VERTEX_POINT('',#986);
#306=EDGE_CURVE('',#250,#251,#84,.T.);
#307=EDGE_CURVE('',#251,#252,#85,.T.);
#308=EDGE_CURVE('',#252,#253,#86,.T.);
#309=EDGE_CURVE('',#253,#250,#87,.T.);
#310=EDGE_CURVE('',#254,#253,#88,.T.);
#311=EDGE_CURVE('',#255,#254,#89,.T.);
#312=EDGE_CURVE('',#250,#255,#90,.T.);
#313=EDGE_CURVE('',#252,#256,#91,.T.);
#314=EDGE_CURVE('',#257,#256,#92,.T.);
#315=EDGE_CURVE('',#258,#257,#93,.T.);
#316=EDGE_CURVE('',#258,#259,#94,.T.);
#317=EDGE_CURVE('',#259,#260,#95,.T.);
#318=EDGE_CURVE('',#261,#260,#96,.T.);
#319=EDGE_CURVE('',#261,#262,#97,.T.);
#320=EDGE_CURVE('',#254,#262,#98,.T.);
#321=EDGE_CURVE('',#263,#263,#18,.T.);
#322=EDGE_CURVE('',#264,#255,#99,.T.);
#323=EDGE_CURVE('',#262,#264,#100,.T.);
#324=EDGE_CURVE('',#265,#266,#101,.T.);
#325=EDGE_CURVE('',#266,#261,#102,.T.);
#326=EDGE_CURVE('',#260,#265,#103,.T.);
#327=EDGE_CURVE('',#264,#266,#104,.T.);
#328=EDGE_CURVE('',#267,#268,#105,.F.);
#329=EDGE_CURVE('',#267,#257,#106,.T.);
#330=EDGE_CURVE('',#256,#268,#107,.T.);
#331=EDGE_CURVE('',#269,#270,#108,.T.);
#332=EDGE_CURVE('',#271,#269,#109,.T.);
#333=EDGE_CURVE('',#272,#271,#110,.T.);
#334=EDGE_CURVE('',#272,#270,#111,.T.);
#335=EDGE_CURVE('',#270,#273,#112,.T.);
#336=EDGE_CURVE('',#274,#272,#113,.T.);
#337=EDGE_CURVE('',#273,#274,#114,.T.);
#338=EDGE_CURVE('',#275,#269,#115,.T.);
#339=EDGE_CURVE('',#276,#275,#116,.T.);
#340=EDGE_CURVE('',#271,#276,#117,.T.);
#341=EDGE_CURVE('',#277,#273,#118,.T.);
#342=EDGE_CURVE('',#278,#277,#119,.T.);
#343=EDGE_CURVE('',#279,#278,#120,.T.);
#344=EDGE_CURVE('',#279,#280,#121,.T.);
#345=EDGE_CURVE('',#275,#280,#122,.T.);
#346=EDGE_CURVE('',#274,#281,#123,.T.);
#347=EDGE_CURVE('',#281,#282,#124,.T.);
#348=EDGE_CURVE('',#282,#283,#125,.T.);
#349=EDGE_CURVE('',#283,#277,#126,.T.);
#350=EDGE_CURVE('',#284,#285,#127,.T.);
#351=EDGE_CURVE('',#286,#284,#128,.T.);
#352=EDGE_CURVE('',#287,#286,#129,.T.);
#353=EDGE_CURVE('',#287,#285,#130,.T.);
#354=EDGE_CURVE('',#288,#289,#131,.T.);
#355=EDGE_CURVE('',#288,#290,#132,.T.);
#356=EDGE_CURVE('',#291,#290,#133,.T.);
#357=EDGE_CURVE('',#289,#291,#134,.T.);
#358=EDGE_CURVE('',#285,#292,#135,.T.);
#359=EDGE_CURVE('',#293,#287,#136,.T.);
#360=EDGE_CURVE('',#293,#292,#137,.T.);
#361=EDGE_CURVE('',#292,#294,#138,.T.);
#362=EDGE_CURVE('',#295,#293,#139,.T.);
#363=EDGE_CURVE('',#294,#295,#140,.T.);
#364=EDGE_CURVE('',#283,#296,#141,.T.);
#365=EDGE_CURVE('',#297,#282,#142,.T.);
#366=EDGE_CURVE('',#296,#297,#143,.T.);
#367=EDGE_CURVE('',#296,#288,#144,.T.);
#368=EDGE_CURVE('',#290,#297,#145,.T.);
#369=EDGE_CURVE('',#298,#281,#146,.T.);
#370=EDGE_CURVE('',#298,#258,#147,.T.);
#371=EDGE_CURVE('',#291,#267,#148,.T.);
#372=EDGE_CURVE('',#280,#294,#149,.T.);
#373=EDGE_CURVE('',#299,#279,#150,.T.);
#374=EDGE_CURVE('',#300,#299,#151,.T.);
#375=EDGE_CURVE('',#284,#300,#152,.T.);
#376=EDGE_CURVE('',#300,#265,#153,.T.);
#377=EDGE_CURVE('',#265,#286,#154,.T.);
#378=EDGE_CURVE('',#295,#301,#155,.T.);
#379=EDGE_CURVE('',#301,#276,#156,.T.);
#380=EDGE_CURVE('',#267,#302,#157,.T.);
#381=EDGE_CURVE('',#302,#289,#158,.T.);
#382=EDGE_CURVE('',#268,#251,#159,.T.);
#383=EDGE_CURVE('',#303,#303,#19,.T.);
#384=EDGE_CURVE('',#303,#263,#160,.T.);
#385=EDGE_CURVE('',#278,#304,#161,.T.);
#386=EDGE_CURVE('',#299,#304,#162,.T.);
#387=EDGE_CURVE('',#304,#302,#163,.T.);
#388=EDGE_CURVE('',#259,#305,#164,.T.);
#389=EDGE_CURVE('',#305,#301,#165,.T.);
#390=EDGE_CURVE('',#298,#305,#166,.T.);
#391=ORIENTED_EDGE('',*,*,#306,.T.);
#392=ORIENTED_EDGE('',*,*,#307,.T.);
#393=ORIENTED_EDGE('',*,*,#308,.T.);
#394=ORIENTED_EDGE('',*,*,#309,.T.);
#395=ORIENTED_EDGE('',*,*,#309,.F.);
#396=ORIENTED_EDGE('',*,*,#310,.F.);
#397=ORIENTED_EDGE('',*,*,#311,.F.);
#398=ORIENTED_EDGE('',*,*,#312,.F.);
#399=ORIENTED_EDGE('',*,*,#308,.F.);
#400=ORIENTED_EDGE('',*,*,#313,.T.);
#401=ORIENTED_EDGE('',*,*,#314,.F.);
#402=ORIENTED_EDGE('',*,*,#315,.F.);
#403=ORIENTED_EDGE('',*,*,#316,.T.);
#404=ORIENTED_EDGE('',*,*,#317,.T.);
#405=ORIENTED_EDGE('',*,*,#318,.F.);
#406=ORIENTED_EDGE('',*,*,#319,.T.);
#407=ORIENTED_EDGE('',*,*,#320,.F.);
#408=ORIENTED_EDGE('',*,*,#310,.T.);
#409=ORIENTED_EDGE('',*,*,#321,.T.);
#410=ORIENTED_EDGE('',*,*,#322,.T.);
#411=ORIENTED_EDGE('',*,*,#311,.T.);
#412=ORIENTED_EDGE('',*,*,#320,.T.);
#413=ORIENTED_EDGE('',*,*,#323,.T.);
#414=ORIENTED_EDGE('',*,*,#324,.T.);
#415=ORIENTED_EDGE('',*,*,#325,.T.);
#416=ORIENTED_EDGE('',*,*,#318,.T.);
#417=ORIENTED_EDGE('',*,*,#326,.T.);
#418=ORIENTED_EDGE('',*,*,#323,.F.);
#419=ORIENTED_EDGE('',*,*,#319,.F.);
#420=ORIENTED_EDGE('',*,*,#325,.F.);
#421=ORIENTED_EDGE('',*,*,#327,.F.);
#422=ORIENTED_EDGE('',*,*,#328,.F.);
#423=ORIENTED_EDGE('',*,*,#329,.T.);
#424=ORIENTED_EDGE('',*,*,#314,.T.);
#425=ORIENTED_EDGE('',*,*,#330,.T.);
#426=ORIENTED_EDGE('',*,*,#331,.F.);
#427=ORIENTED_EDGE('',*,*,#332,.F.);
#428=ORIENTED_EDGE('',*,*,#333,.F.);
#429=ORIENTED_EDGE('',*,*,#334,.T.);
#430=ORIENTED_EDGE('',*,*,#335,.F.);
#431=ORIENTED_EDGE('',*,*,#334,.F.);
#432=ORIENTED_EDGE('',*,*,#336,.F.);
#433=ORIENTED_EDGE('',*,*,#337,.F.);
#434=ORIENTED_EDGE('',*,*,#338,.F.);
#435=ORIENTED_EDGE('',*,*,#339,.F.);
#436=ORIENTED_EDGE('',*,*,#340,.F.);
#437=ORIENTED_EDGE('',*,*,#332,.T.);
#438=ORIENTED_EDGE('',*,*,#338,.T.);
#439=ORIENTED_EDGE('',*,*,#331,.T.);
#440=ORIENTED_EDGE('',*,*,#335,.T.);
#441=ORIENTED_EDGE('',*,*,#341,.F.);
#442=ORIENTED_EDGE('',*,*,#342,.F.);
#443=ORIENTED_EDGE('',*,*,#343,.F.);
#444=ORIENTED_EDGE('',*,*,#344,.T.);
#445=ORIENTED_EDGE('',*,*,#345,.F.);
#446=ORIENTED_EDGE('',*,*,#337,.T.);
#447=ORIENTED_EDGE('',*,*,#346,.T.);
#448=ORIENTED_EDGE('',*,*,#347,.T.);
#449=ORIENTED_EDGE('',*,*,#348,.T.);
#450=ORIENTED_EDGE('',*,*,#349,.T.);
#451=ORIENTED_EDGE('',*,*,#341,.T.);
#452=ORIENTED_EDGE('',*,*,#350,.F.);
#453=ORIENTED_EDGE('',*,*,#351,.F.);
#454=ORIENTED_EDGE('',*,*,#352,.F.);
#455=ORIENTED_EDGE('',*,*,#353,.T.);
#456=ORIENTED_EDGE('',*,*,#354,.F.);
#457=ORIENTED_EDGE('',*,*,#355,.T.);
#458=ORIENTED_EDGE('',*,*,#356,.F.);
#459=ORIENTED_EDGE('',*,*,#357,.F.);
#460=ORIENTED_EDGE('',*,*,#358,.F.);
#461=ORIENTED_EDGE('',*,*,#353,.F.);
#462=ORIENTED_EDGE('',*,*,#359,.F.);
#463=ORIENTED_EDGE('',*,*,#360,.T.);
#464=ORIENTED_EDGE('',*,*,#361,.F.);
#465=ORIENTED_EDGE('',*,*,#360,.F.);
#466=ORIENTED_EDGE('',*,*,#362,.F.);
#467=ORIENTED_EDGE('',*,*,#363,.F.);
#468=ORIENTED_EDGE('',*,*,#364,.F.);
#469=ORIENTED_EDGE('',*,*,#348,.F.);
#470=ORIENTED_EDGE('',*,*,#365,.F.);
#471=ORIENTED_EDGE('',*,*,#366,.F.);
#472=ORIENTED_EDGE('',*,*,#367,.F.);
#473=ORIENTED_EDGE('',*,*,#366,.T.);
#474=ORIENTED_EDGE('',*,*,#368,.F.);
#475=ORIENTED_EDGE('',*,*,#355,.F.);
#476=ORIENTED_EDGE('',*,*,#356,.T.);
#477=ORIENTED_EDGE('',*,*,#368,.T.);
#478=ORIENTED_EDGE('',*,*,#365,.T.);
#479=ORIENTED_EDGE('',*,*,#347,.F.);
#480=ORIENTED_EDGE('',*,*,#369,.F.);
#481=ORIENTED_EDGE('',*,*,#370,.T.);
#482=ORIENTED_EDGE('',*,*,#315,.T.);
#483=ORIENTED_EDGE('',*,*,#329,.F.);
#484=ORIENTED_EDGE('',*,*,#371,.F.);
#485=ORIENTED_EDGE('',*,*,#350,.T.);
#486=ORIENTED_EDGE('',*,*,#358,.T.);
#487=ORIENTED_EDGE('',*,*,#361,.T.);
#488=ORIENTED_EDGE('',*,*,#372,.F.);
#489=ORIENTED_EDGE('',*,*,#344,.F.);
#490=ORIENTED_EDGE('',*,*,#373,.F.);
#491=ORIENTED_EDGE('',*,*,#374,.F.);
#492=ORIENTED_EDGE('',*,*,#375,.F.);
#493=ORIENTED_EDGE('',*,*,#376,.T.);
#494=ORIENTED_EDGE('',*,*,#377,.T.);
#495=ORIENTED_EDGE('',*,*,#351,.T.);
#496=ORIENTED_EDGE('',*,*,#375,.T.);
#497=ORIENTED_EDGE('',*,*,#339,.T.);
#498=ORIENTED_EDGE('',*,*,#345,.T.);
#499=ORIENTED_EDGE('',*,*,#372,.T.);
#500=ORIENTED_EDGE('',*,*,#363,.T.);
#501=ORIENTED_EDGE('',*,*,#378,.T.);
#502=ORIENTED_EDGE('',*,*,#379,.T.);
#503=ORIENTED_EDGE('',*,*,#380,.T.);
#504=ORIENTED_EDGE('',*,*,#381,.T.);
#505=ORIENTED_EDGE('',*,*,#357,.T.);
#506=ORIENTED_EDGE('',*,*,#371,.T.);
#507=ORIENTED_EDGE('',*,*,#307,.F.);
#508=ORIENTED_EDGE('',*,*,#382,.F.);
#509=ORIENTED_EDGE('',*,*,#330,.F.);
#510=ORIENTED_EDGE('',*,*,#313,.F.);
#511=ORIENTED_EDGE('',*,*,#383,.F.);
#512=ORIENTED_EDGE('',*,*,#384,.T.);
#513=ORIENTED_EDGE('',*,*,#321,.F.);
#514=ORIENTED_EDGE('',*,*,#384,.F.);
#515=ORIENTED_EDGE('',*,*,#373,.T.);
#516=ORIENTED_EDGE('',*,*,#343,.T.);
#517=ORIENTED_EDGE('',*,*,#385,.T.);
#518=ORIENTED_EDGE('',*,*,#386,.F.);
#519=ORIENTED_EDGE('',*,*,#354,.T.);
#520=ORIENTED_EDGE('',*,*,#381,.F.);
#521=ORIENTED_EDGE('',*,*,#387,.F.);
#522=ORIENTED_EDGE('',*,*,#385,.F.);
#523=ORIENTED_EDGE('',*,*,#342,.T.);
#524=ORIENTED_EDGE('',*,*,#349,.F.);
#525=ORIENTED_EDGE('',*,*,#364,.T.);
#526=ORIENTED_EDGE('',*,*,#367,.T.);
#527=ORIENTED_EDGE('',*,*,#352,.T.);
#528=ORIENTED_EDGE('',*,*,#377,.F.);
#529=ORIENTED_EDGE('',*,*,#326,.F.);
#530=ORIENTED_EDGE('',*,*,#317,.F.);
#531=ORIENTED_EDGE('',*,*,#388,.T.);
#532=ORIENTED_EDGE('',*,*,#389,.T.);
#533=ORIENTED_EDGE('',*,*,#378,.F.);
#534=ORIENTED_EDGE('',*,*,#362,.T.);
#535=ORIENTED_EDGE('',*,*,#359,.T.);
#536=ORIENTED_EDGE('',*,*,#340,.T.);
#537=ORIENTED_EDGE('',*,*,#379,.F.);
#538=ORIENTED_EDGE('',*,*,#389,.F.);
#539=ORIENTED_EDGE('',*,*,#390,.F.);
#540=ORIENTED_EDGE('',*,*,#369,.T.);
#541=ORIENTED_EDGE('',*,*,#346,.F.);
#542=ORIENTED_EDGE('',*,*,#336,.T.);
#543=ORIENTED_EDGE('',*,*,#333,.T.);
#544=ORIENTED_EDGE('',*,*,#316,.F.);
#545=ORIENTED_EDGE('',*,*,#370,.F.);
#546=ORIENTED_EDGE('',*,*,#390,.T.);
#547=ORIENTED_EDGE('',*,*,#388,.F.);
#548=ORIENTED_EDGE('',*,*,#306,.F.);
#549=ORIENTED_EDGE('',*,*,#312,.T.);
#550=ORIENTED_EDGE('',*,*,#322,.F.);
#551=ORIENTED_EDGE('',*,*,#327,.T.);
#552=ORIENTED_EDGE('',*,*,#324,.F.);
#553=ORIENTED_EDGE('',*,*,#376,.F.);
#554=ORIENTED_EDGE('',*,*,#374,.T.);
#555=ORIENTED_EDGE('',*,*,#386,.T.);
#556=ORIENTED_EDGE('',*,*,#387,.T.);
#557=ORIENTED_EDGE('',*,*,#380,.F.);
#558=ORIENTED_EDGE('',*,*,#328,.T.);
#559=ORIENTED_EDGE('',*,*,#382,.T.);
#560=ORIENTED_EDGE('',*,*,#383,.T.);
#561=PLANE('',#636);
#562=PLANE('',#637);
#563=PLANE('',#638);
#564=PLANE('',#640);
#565=PLANE('',#641);
#566=PLANE('',#642);
#567=PLANE('',#643);
#568=PLANE('',#644);
#569=PLANE('',#645);
#570=PLANE('',#646);
#571=PLANE('',#647);
#572=PLANE('',#648);
#573=PLANE('',#649);
#574=PLANE('',#650);
#575=PLANE('',#651);
#576=PLANE('',#652);
#577=PLANE('',#653);
#578=PLANE('',#654);
#579=PLANE('',#655);
#580=PLANE('',#656);
#581=PLANE('',#657);
#582=PLANE('',#658);
#583=PLANE('',#659);
#584=PLANE('',#660);
#585=PLANE('',#663);
#586=PLANE('',#664);
#587=PLANE('',#665);
#588=PLANE('',#666);
#589=PLANE('',#667);
#590=PLANE('',#668);
#591=ADVANCED_FACE('',(#20),#561,.T.);
#592=ADVANCED_FACE('',(#21),#562,.T.);
#593=ADVANCED_FACE('',(#22,#16),#563,.F.);
#594=ADVANCED_FACE('',(#23),#564,.T.);
#595=ADVANCED_FACE('',(#24),#565,.T.);
#596=ADVANCED_FACE('',(#25),#566,.T.);
#597=ADVANCED_FACE('',(#26),#567,.T.);
#598=ADVANCED_FACE('',(#27),#568,.F.);
#599=ADVANCED_FACE('',(#28),#569,.F.);
#600=ADVANCED_FACE('',(#29),#570,.F.);
#601=ADVANCED_FACE('',(#30),#571,.T.);
#602=ADVANCED_FACE('',(#31),#572,.T.);
#603=ADVANCED_FACE('',(#32),#573,.F.);
#604=ADVANCED_FACE('',(#33),#574,.F.);
#605=ADVANCED_FACE('',(#34),#575,.F.);
#606=ADVANCED_FACE('',(#35),#576,.F.);
#607=ADVANCED_FACE('',(#36),#577,.F.);
#608=ADVANCED_FACE('',(#37),#578,.F.);
#609=ADVANCED_FACE('',(#38),#579,.T.);
#610=ADVANCED_FACE('',(#39),#580,.T.);
#611=ADVANCED_FACE('',(#40),#581,.T.);
#612=ADVANCED_FACE('',(#41),#582,.T.);
#613=ADVANCED_FACE('',(#42),#583,.T.);
#614=ADVANCED_FACE('',(#43),#584,.T.);
#615=ADVANCED_FACE('',(#44),#15,.F.);
#616=ADVANCED_FACE('',(#45),#585,.T.);
#617=ADVANCED_FACE('',(#46),#586,.T.);
#618=ADVANCED_FACE('',(#47),#587,.T.);
#619=ADVANCED_FACE('',(#48),#588,.T.);
#620=ADVANCED_FACE('',(#49),#589,.T.);
#621=ADVANCED_FACE('',(#50,#17),#590,.T.);
#622=CLOSED_SHELL('',(#591,#592,#593,#594,#595,#596,#597,#598,#599,#600,
#601,#602,#603,#604,#605,#606,#607,#608,#609,#610,#611,#612,#613,#614,#615,
#616,#617,#618,#619,#620,#621));
#623=DERIVED_UNIT_ELEMENT(#625,1.);
#624=DERIVED_UNIT_ELEMENT(#998,-3.);
#625=(
MASS_UNIT()
NAMED_UNIT(*)
SI_UNIT(.KILO.,.GRAM.)
);
#626=DERIVED_UNIT((#623,#624));
#627=MEASURE_REPRESENTATION_ITEM('density measure',
POSITIVE_RATIO_MEASURE(7850.),#626);
#628=PROPERTY_DEFINITION_REPRESENTATION(#633,#630);
#629=PROPERTY_DEFINITION_REPRESENTATION(#634,#631);
#630=REPRESENTATION('material name',(#632),#995);
#631=REPRESENTATION('density',(#627),#995);
#632=DESCRIPTIVE_REPRESENTATION_ITEM('Steel','Steel');
#633=PROPERTY_DEFINITION('material property','material name',#1005);
#634=PROPERTY_DEFINITION('material property','density of part',#1005);
#635=AXIS2_PLACEMENT_3D('',#820,#669,#670);
#636=AXIS2_PLACEMENT_3D('',#821,#671,#672);
#637=AXIS2_PLACEMENT_3D('',#830,#677,#678);
#638=AXIS2_PLACEMENT_3D('',#836,#682,#683);
#639=AXIS2_PLACEMENT_3D('',#853,#692,#693);
#640=AXIS2_PLACEMENT_3D('',#854,#694,#695);
#641=AXIS2_PLACEMENT_3D('',#858,#698,#699);
#642=AXIS2_PLACEMENT_3D('',#864,#703,#704);
#643=AXIS2_PLACEMENT_3D('',#866,#706,#707);
#644=AXIS2_PLACEMENT_3D('',#872,#711,#712);
#645=AXIS2_PLACEMENT_3D('',#881,#717,#718);
#646=AXIS2_PLACEMENT_3D('',#887,#722,#723);
#647=AXIS2_PLACEMENT_3D('',#893,#727,#728);
#648=AXIS2_PLACEMENT_3D('',#903,#734,#735);
#649=AXIS2_PLACEMENT_3D('',#911,#740,#741);
#650=AXIS2_PLACEMENT_3D('',#920,#746,#747);
#651=AXIS2_PLACEMENT_3D('',#929,#752,#753);
#652=AXIS2_PLACEMENT_3D('',#935,#757,#758);
#653=AXIS2_PLACEMENT_3D('',#941,#762,#763);
#654=AXIS2_PLACEMENT_3D('',#947,#767,#768);
#655=AXIS2_PLACEMENT_3D('',#950,#771,#772);
#656=AXIS2_PLACEMENT_3D('',#955,#776,#777);
#657=AXIS2_PLACEMENT_3D('',#962,#782,#783);
#658=AXIS2_PLACEMENT_3D('',#965,#786,#787);
#659=AXIS2_PLACEMENT_3D('',#969,#790,#791);
#660=AXIS2_PLACEMENT_3D('',#973,#794,#795);
#661=AXIS2_PLACEMENT_3D('',#975,#797,#798);
#662=AXIS2_PLACEMENT_3D('',#977,#799,#800);
#663=AXIS2_PLACEMENT_3D('',#979,#802,#803);
#664=AXIS2_PLACEMENT_3D('',#983,#806,#807);
#665=AXIS2_PLACEMENT_3D('',#985,#809,#810);
#666=AXIS2_PLACEMENT_3D('',#989,#813,#814);
#667=AXIS2_PLACEMENT_3D('',#991,#816,#817);
#668=AXIS2_PLACEMENT_3D('',#992,#818,#819);
#669=DIRECTION('axis',(0.,0.,1.));
#670=DIRECTION('refdir',(1.,0.,0.));
#671=DIRECTION('center_axis',(0.,0.707106781186548,0.707106781186547));
#672=DIRECTION('ref_axis',(1.,0.,0.));
#673=DIRECTION('',(0.,0.707106781186547,-0.707106781186548));
#674=DIRECTION('',(-1.,0.,0.));
#675=DIRECTION('',(0.,-0.707106781186547,0.707106781186548));
#676=DIRECTION('',(1.,0.,0.));
#677=DIRECTION('center_axis',(0.,0.,1.));
#678=DIRECTION('ref_axis',(0.,-1.,0.));
#679=DIRECTION('',(0.,1.,0.));
#680=DIRECTION('',(-1.,0.,0.));
#681=DIRECTION('',(0.,-1.,0.));
#682=DIRECTION('center_axis',(1.,0.,0.));
#683=DIRECTION('ref_axis',(0.,1.,0.));
#684=DIRECTION('',(0.,1.9088863165608E-33,-1.));
#685=DIRECTION('',(0.,-0.514495755427526,0.857492925712544));
#686=DIRECTION('',(0.,0.,1.));
#687=DIRECTION('',(0.,-1.,0.));
#688=DIRECTION('',(0.,0.,1.));
#689=DIRECTION('',(0.,-0.514495755427526,-0.857492925712545));
#690=DIRECTION('',(0.,0.,1.));
#691=DIRECTION('',(0.,-0.707106781186547,-0.707106781186548));
#692=DIRECTION('center_axis',(1.,0.,0.));
#693=DIRECTION('ref_axis',(0.,1.,0.));
#694=DIRECTION('center_axis',(0.,-0.707106781186548,0.707106781186547));
#695=DIRECTION('ref_axis',(1.,0.,0.));
#696=DIRECTION('',(0.,0.707106781186547,0.707106781186548));
#697=DIRECTION('',(1.,0.,0.));
#698=DIRECTION('center_axis',(0.,-0.857492925712545,0.514495755427526));
#699=DIRECTION('ref_axis',(1.,0.,0.));
#700=DIRECTION('',(0.,0.514495755427526,0.857492925712545));
#701=DIRECTION('',(-1.,0.,0.));
#702=DIRECTION('',(1.,0.,0.));
#703=DIRECTION('center_axis',(0.,-1.,0.));
#704=DIRECTION('ref_axis',(0.,0.,-1.));
#705=DIRECTION('',(0.,0.,-1.));
#706=DIRECTION('center_axis',(0.,0.857492925712544,0.514495755427526));
#707=DIRECTION('ref_axis',(1.,0.,0.));
#708=DIRECTION('',(0.,0.514495755427526,-0.857492925712544));
#709=DIRECTION('',(-1.,0.,0.));
#710=DIRECTION('',(1.,0.,0.));
#711=DIRECTION('center_axis',(0.,0.,-1.));
#712=DIRECTION('ref_axis',(0.,-1.,0.));
#713=DIRECTION('',(0.,1.,0.));
#714=DIRECTION('',(-1.,0.,0.));
#715=DIRECTION('',(0.,-1.,0.));
#716=DIRECTION('',(-1.,0.,0.));
#717=DIRECTION('center_axis',(0.,1.,0.));
#718=DIRECTION('ref_axis',(0.,0.,-1.));
#719=DIRECTION('',(0.,0.,1.));
#720=DIRECTION('',(0.,0.,-1.));
#721=DIRECTION('',(1.,0.,0.));
#722=DIRECTION('center_axis',(0.,-1.,0.));
#723=DIRECTION('ref_axis',(0.,0.,1.));
#724=DIRECTION('',(0.,0.,-1.));
#725=DIRECTION('',(-1.,0.,0.));
#726=DIRECTION('',(0.,0.,1.));
#727=DIRECTION('center_axis',(-1.,0.,0.));
#728=DIRECTION('ref_axis',(0.,-1.,0.));
#729=DIRECTION('',(0.,-1.,0.));
#730=DIRECTION('',(0.,0.,1.));
#731=DIRECTION('',(0.,1.,0.));
#732=DIRECTION('',(0.,0.,1.));
#733=DIRECTION('',(0.,-1.,0.));
#734=DIRECTION('center_axis',(0.,0.,1.));
#735=DIRECTION('ref_axis',(1.,0.,0.));
#736=DIRECTION('',(0.,1.,0.));
#737=DIRECTION('',(-1.,0.,0.));
#738=DIRECTION('',(0.,-1.,0.));
#739=DIRECTION('',(1.,0.,0.));
#740=DIRECTION('center_axis',(-1.,0.,8.22387425648264E-17));
#741=DIRECTION('ref_axis',(8.22387425648264E-17,0.,1.));
#742=DIRECTION('',(-8.22387425648264E-17,0.,-1.));
#743=DIRECTION('',(0.,1.,0.));
#744=DIRECTION('',(8.22387425648264E-17,0.,1.));
#745=DIRECTION('',(0.,1.,0.));
#746=DIRECTION('center_axis',(-1.,0.,8.22387425648264E-17));
#747=DIRECTION('ref_axis',(8.22387425648264E-17,0.,1.));
#748=DIRECTION('',(8.22387425648264E-17,0.,1.));
#749=DIRECTION('',(0.,1.,0.));
#750=DIRECTION('',(-8.22387425648264E-17,-4.80293639981451E-114,-1.));
#751=DIRECTION('',(0.,1.,0.));
#752=DIRECTION('center_axis',(0.,0.,-1.));
#753=DIRECTION('ref_axis',(-1.,0.,0.));
#754=DIRECTION('',(1.,0.,0.));
#755=DIRECTION('',(-1.,0.,0.));
#756=DIRECTION('',(0.,1.,0.));
#757=DIRECTION('center_axis',(1.,0.,0.));
#758=DIRECTION('ref_axis',(0.,0.,-1.));
#759=DIRECTION('',(0.,0.,1.));
#760=DIRECTION('',(0.,0.,-1.));
#761=DIRECTION('',(0.,-1.,0.));
#762=DIRECTION('center_axis',(1.,0.,0.));
#763=DIRECTION('ref_axis',(0.,0.,-1.));
#764=DIRECTION('',(0.,0.,-1.));
#765=DIRECTION('',(0.,0.,1.));
#766=DIRECTION('',(0.,1.,0.));
#767=DIRECTION('center_axis',(0.,0.,-1.));
#768=DIRECTION('ref_axis',(-1.,0.,0.));
#769=DIRECTION('',(-1.,0.,0.));
#770=DIRECTION('',(1.,5.84023569673198E-98,0.));
#771=DIRECTION('center_axis',(-5.84023569673198E-98,1.,0.));
#772=DIRECTION('ref_axis',(0.,0.,1.));
#773=DIRECTION('',(0.,0.,1.));
#774=DIRECTION('',(-1.,0.,0.));
#775=DIRECTION('',(-1.,0.,0.));
#776=DIRECTION('center_axis',(0.,1.,0.));
#777=DIRECTION('ref_axis',(-1.,0.,0.));
#778=DIRECTION('',(-1.,0.,0.));
#779=DIRECTION('',(1.,0.,0.));
#780=DIRECTION('',(0.,0.,-1.));
#781=DIRECTION('',(-1.,0.,0.));
#782=DIRECTION('center_axis',(0.,0.,1.));
#783=DIRECTION('ref_axis',(1.,0.,0.));
#784=DIRECTION('',(0.,-1.,0.));
#785=DIRECTION('',(1.,0.,0.));
#786=DIRECTION('center_axis',(0.,0.,1.));
#787=DIRECTION('ref_axis',(1.,0.,0.));
#788=DIRECTION('',(1.,0.,0.));
#789=DIRECTION('',(0.,1.,0.));
#790=DIRECTION('center_axis',(0.,0.,1.));
#791=DIRECTION('ref_axis',(1.,0.,0.));
#792=DIRECTION('',(0.,-1.,0.));
#793=DIRECTION('',(1.,0.,0.));
#794=DIRECTION('center_axis',(0.,1.,1.9088863165608E-33));
#795=DIRECTION('ref_axis',(0.,-1.9088863165608E-33,1.));
#796=DIRECTION('',(0.,-1.9088863165608E-33,1.));
#797=DIRECTION('center_axis',(-1.,0.,0.));
#798=DIRECTION('ref_axis',(0.,1.,0.));
#799=DIRECTION('center_axis',(-1.,0.,0.));
#800=DIRECTION('ref_axis',(0.,1.,0.));
#801=DIRECTION('',(-1.,0.,0.));
#802=DIRECTION('center_axis',(0.,0.,1.));
#803=DIRECTION('ref_axis',(0.,-1.,0.));
#804=DIRECTION('',(-1.,0.,0.));
#805=DIRECTION('',(0.,1.,0.));
#806=DIRECTION('center_axis',(0.,-1.,0.));
#807=DIRECTION('ref_axis',(1.,0.,0.));
#808=DIRECTION('',(0.,-1.9088863165608E-33,1.));
#809=DIRECTION('center_axis',(0.,-1.,0.));
#810=DIRECTION('ref_axis',(0.,0.,-1.));
#811=DIRECTION('',(1.,0.,0.));
#812=DIRECTION('',(0.,0.,1.));
#813=DIRECTION('center_axis',(1.,0.,0.));
#814=DIRECTION('ref_axis',(0.,0.,-1.));
#815=DIRECTION('',(0.,-1.,0.));
#816=DIRECTION('center_axis',(0.,3.26824475411167E-33,-1.));
#817=DIRECTION('ref_axis',(0.,1.,3.26824475411167E-33));
#818=DIRECTION('center_axis',(1.,0.,0.));
#819=DIRECTION('ref_axis',(0.,0.,-1.));
#820=CARTESIAN_POINT('',(0.,0.,0.));
#821=CARTESIAN_POINT('Origin',(0.,-6.5,106.5));
#822=CARTESIAN_POINT('',(3.,-13.,113.));
#823=CARTESIAN_POINT('',(3.,-1.9088863165608E-31,100.));
#824=CARTESIAN_POINT('',(3.,-0.624999999999996,100.625));
#825=CARTESIAN_POINT('',(0.,-1.9088863165608E-31,100.));
#826=CARTESIAN_POINT('',(0.,0.,100.));
#827=CARTESIAN_POINT('',(0.,-13.,113.));
#828=CARTESIAN_POINT('',(0.,-0.624999999999996,100.625));
#829=CARTESIAN_POINT('',(0.,-13.,113.));
#830=CARTESIAN_POINT('Origin',(0.,0.,113.));
#831=CARTESIAN_POINT('',(0.,-53.,113.));
#832=CARTESIAN_POINT('',(0.,-66.,113.));
#833=CARTESIAN_POINT('',(3.,-53.,113.));
#834=CARTESIAN_POINT('',(0.,-53.,113.));
#835=CARTESIAN_POINT('',(3.,-66.,113.));
#836=CARTESIAN_POINT('Origin',(0.,-33.,56.5));
#837=CARTESIAN_POINT('',(0.,-7.25376800293104E-32,38.));
#838=CARTESIAN_POINT('',(0.,-2.1570415377137E-31,113.));
#839=CARTESIAN_POINT('',(0.,3.,33.));
#840=CARTESIAN_POINT('',(0.,-7.6985294117647,50.8308823529412));
#841=CARTESIAN_POINT('',(-1.75207070901959E-97,3.,0.));
#842=CARTESIAN_POINT('',(-1.75207070901959E-97,3.,3.));
#843=CARTESIAN_POINT('',(0.,-69.,0.));
#844=CARTESIAN_POINT('',(0.,-66.,0.));
#845=CARTESIAN_POINT('',(0.,-69.,33.));
#846=CARTESIAN_POINT('',(0.,-69.,3.));
#847=CARTESIAN_POINT('',(0.,-66.,38.));
#848=CARTESIAN_POINT('',(0.,-58.3014705882353,50.8308823529412));
#849=CARTESIAN_POINT('',(0.,-66.,100.));
#850=CARTESIAN_POINT('',(0.,-66.,-2.1570415377137E-31));
#851=CARTESIAN_POINT('',(0.,-65.375,100.625));
#852=CARTESIAN_POINT('',(0.,-36.5,108.));
#853=CARTESIAN_POINT('Origin',(0.,-33.,108.));
#854=CARTESIAN_POINT('Origin',(0.,-59.5,106.5));
#855=CARTESIAN_POINT('',(3.,-66.,100.));
#856=CARTESIAN_POINT('',(3.,-65.375,100.625));
#857=CARTESIAN_POINT('',(0.,-66.,100.));
#858=CARTESIAN_POINT('Origin',(22.25,-67.5,35.5));
#859=CARTESIAN_POINT('',(3.,-69.,33.));
#860=CARTESIAN_POINT('',(3.,-66.,38.));
#861=CARTESIAN_POINT('',(3.,-58.3014705882353,50.8308823529412));
#862=CARTESIAN_POINT('',(22.25,-66.,38.));
#863=CARTESIAN_POINT('',(0.,-69.,33.));
#864=CARTESIAN_POINT('Origin',(0.,-66.,113.));
#865=CARTESIAN_POINT('',(3.,-66.,-2.1570415377137E-31));
#866=CARTESIAN_POINT('Origin',(22.25,1.5,35.5));
#867=CARTESIAN_POINT('',(3.,3.,33.));
#868=CARTESIAN_POINT('',(3.,-7.25376800293104E-32,38.));
#869=CARTESIAN_POINT('',(3.,-7.6985294117647,50.8308823529412));
#870=CARTESIAN_POINT('',(0.,3.,33.));
#871=CARTESIAN_POINT('',(22.25,0.,38.));
#872=CARTESIAN_POINT('Origin',(46.,-3.,6.));
#873=CARTESIAN_POINT('',(43.,-63.,6.));
#874=CARTESIAN_POINT('',(43.,-3.,6.));
#875=CARTESIAN_POINT('',(43.,-1.5,6.));
#876=CARTESIAN_POINT('',(46.,-63.,6.));
#877=CARTESIAN_POINT('',(46.,-63.,6.));
#878=CARTESIAN_POINT('',(46.,-3.,6.));
#879=CARTESIAN_POINT('',(46.,-18.,6.));
#880=CARTESIAN_POINT('',(46.,-3.,6.));
#881=CARTESIAN_POINT('Origin',(46.,-3.,33.));
#882=CARTESIAN_POINT('',(43.,-3.,33.));
#883=CARTESIAN_POINT('',(43.,-3.,18.));
#884=CARTESIAN_POINT('',(46.,-3.,33.));
#885=CARTESIAN_POINT('',(46.,-3.,17.25));
#886=CARTESIAN_POINT('',(45.25,-3.,33.));
#887=CARTESIAN_POINT('Origin',(46.,-63.,6.));
#888=CARTESIAN_POINT('',(43.,-63.,33.));
#889=CARTESIAN_POINT('',(43.,-63.,4.5));
#890=CARTESIAN_POINT('',(46.,-63.,33.));
#891=CARTESIAN_POINT('',(45.25,-63.,33.));
#892=CARTESIAN_POINT('',(46.,-63.,3.75));
#893=CARTESIAN_POINT('Origin',(43.,-2.1570415377137E-31,3.));
#894=CARTESIAN_POINT('',(43.,0.,33.));
#895=CARTESIAN_POINT('',(43.,-2.1570415377137E-31,33.));
#896=CARTESIAN_POINT('',(43.,-2.1570415377137E-31,3.));
#897=CARTESIAN_POINT('',(43.,-2.1570415377137E-31,3.));
#898=CARTESIAN_POINT('',(43.,-66.,3.));
#899=CARTESIAN_POINT('',(43.,-1.07852076885685E-31,3.));
#900=CARTESIAN_POINT('',(43.,-66.,33.));
#901=CARTESIAN_POINT('',(43.,-66.,3.));
#902=CARTESIAN_POINT('',(43.,-2.1570415377137E-31,33.));
#903=CARTESIAN_POINT('Origin',(44.5,-33.0000004917383,33.));
#904=CARTESIAN_POINT('',(46.,3.,33.));
#905=CARTESIAN_POINT('',(46.,-69.,33.));
#906=CARTESIAN_POINT('',(38.,3.,33.));
#907=CARTESIAN_POINT('',(0.,3.,33.));
#908=CARTESIAN_POINT('',(38.,0.,33.));
#909=CARTESIAN_POINT('',(38.,-51.0000002458692,33.));
#910=CARTESIAN_POINT('',(11.5,0.,33.));
#911=CARTESIAN_POINT('Origin',(8.,-69.,6.));
#912=CARTESIAN_POINT('',(8.,-66.,33.));
#913=CARTESIAN_POINT('',(8.,-66.,6.));
#914=CARTESIAN_POINT('',(8.,-66.,4.5));
#915=CARTESIAN_POINT('',(8.,-69.,33.));
#916=CARTESIAN_POINT('',(8.,-51.0000002458692,33.));
#917=CARTESIAN_POINT('',(8.,-69.,6.));
#918=CARTESIAN_POINT('',(8.,-69.,3.75000001117587));
#919=CARTESIAN_POINT('',(8.,-69.,6.));
#920=CARTESIAN_POINT('Origin',(8.,-69.,6.));
#921=CARTESIAN_POINT('',(8.,0.,6.));
#922=CARTESIAN_POINT('',(8.,0.,33.));
#923=CARTESIAN_POINT('',(8.,0.,4.5));
#924=CARTESIAN_POINT('',(8.,3.,6.));
#925=CARTESIAN_POINT('',(8.,-69.,6.));
#926=CARTESIAN_POINT('',(8.,3.,33.));
#927=CARTESIAN_POINT('',(8.,3.,3.75));
#928=CARTESIAN_POINT('',(8.,-51.0000002458692,33.));
#929=CARTESIAN_POINT('Origin',(38.,-69.,6.));
#930=CARTESIAN_POINT('',(38.,-66.,6.));
#931=CARTESIAN_POINT('',(42.,-66.,6.));
#932=CARTESIAN_POINT('',(38.,-69.,6.));
#933=CARTESIAN_POINT('',(30.5,-69.,6.));
#934=CARTESIAN_POINT('',(38.,-69.,6.));
#935=CARTESIAN_POINT('Origin',(38.,-69.,33.));
#936=CARTESIAN_POINT('',(38.,-66.,33.));
#937=CARTESIAN_POINT('',(38.,-66.,18.));
#938=CARTESIAN_POINT('',(38.,-69.,33.));
#939=CARTESIAN_POINT('',(38.,-69.,17.2500000111759));
#940=CARTESIAN_POINT('',(38.,-51.0000002458692,33.));
#941=CARTESIAN_POINT('Origin',(38.,-69.,33.));
#942=CARTESIAN_POINT('',(38.,0.,6.));
#943=CARTESIAN_POINT('',(38.,0.,18.));
#944=CARTESIAN_POINT('',(38.,3.,6.));
#945=CARTESIAN_POINT('',(38.,3.,17.25));
#946=CARTESIAN_POINT('',(38.,-69.,6.));
#947=CARTESIAN_POINT('Origin',(38.,-69.,6.));
#948=CARTESIAN_POINT('',(19.,0.,6.));
#949=CARTESIAN_POINT('',(30.5,3.,6.));
#950=CARTESIAN_POINT('Origin',(23.,3.,1.5));
#951=CARTESIAN_POINT('',(46.,3.,0.));
#952=CARTESIAN_POINT('',(46.,3.,3.));
#953=CARTESIAN_POINT('',(-1.75207070901959E-97,3.,0.));
#954=CARTESIAN_POINT('',(0.,3.,33.));
#955=CARTESIAN_POINT('Origin',(46.,-66.,3.));
#956=CARTESIAN_POINT('',(46.,-66.,33.));
#957=CARTESIAN_POINT('',(3.,-66.,3.));
#958=CARTESIAN_POINT('',(24.5,-66.,3.));
#959=CARTESIAN_POINT('',(3.,-66.,33.));
#960=CARTESIAN_POINT('',(3.,-66.,-2.1570415377137E-31));
#961=CARTESIAN_POINT('',(46.,-66.,33.));
#962=CARTESIAN_POINT('Origin',(44.5,-33.0000004917383,33.));
#963=CARTESIAN_POINT('',(3.,-33.0000002458692,33.));
#964=CARTESIAN_POINT('',(0.,-69.,33.));
#965=CARTESIAN_POINT('Origin',(44.5,-33.0000004917383,33.));
#966=CARTESIAN_POINT('',(46.,-69.,33.));
#967=CARTESIAN_POINT('',(0.,-69.,33.));
#968=CARTESIAN_POINT('',(46.,-69.,33.));
#969=CARTESIAN_POINT('Origin',(44.5,-33.0000004917383,33.));
#970=CARTESIAN_POINT('',(3.,0.,33.));
#971=CARTESIAN_POINT('',(3.,-33.0000002458692,33.));
#972=CARTESIAN_POINT('',(11.5,0.,33.));
#973=CARTESIAN_POINT('Origin',(0.,0.,0.));
#974=CARTESIAN_POINT('',(3.,-2.1570415377137E-31,113.));
#975=CARTESIAN_POINT('Origin',(3.,-33.,108.));
#976=CARTESIAN_POINT('',(3.,-36.5,108.));
#977=CARTESIAN_POINT('Origin',(3.,-33.,108.));
#978=CARTESIAN_POINT('',(3.,-36.5,108.));
#979=CARTESIAN_POINT('Origin',(3.,0.,3.));
#980=CARTESIAN_POINT('',(3.,0.,3.));
#981=CARTESIAN_POINT('',(1.5,-1.69481835106077E-31,3.));
#982=CARTESIAN_POINT('',(3.,-16.5,3.));
#983=CARTESIAN_POINT('Origin',(0.,-1.69481835106077E-31,3.));
#984=CARTESIAN_POINT('',(3.,-2.1570415377137E-31,113.));
#985=CARTESIAN_POINT('Origin',(23.,-69.,1.50000002235174));
#986=CARTESIAN_POINT('',(46.,-69.,0.));
#987=CARTESIAN_POINT('',(46.,-69.,0.));
#988=CARTESIAN_POINT('',(46.,-69.,3.00000004470348));
#989=CARTESIAN_POINT('Origin',(46.,-33.,1.5));
#990=CARTESIAN_POINT('',(46.,-66.,0.));
#991=CARTESIAN_POINT('Origin',(0.,-66.,-2.1570415377137E-31));
#992=CARTESIAN_POINT('Origin',(3.,-33.,56.5));
#993=UNCERTAINTY_MEASURE_WITH_UNIT(LENGTH_MEASURE(0.01),#997,
'DISTANCE_ACCURACY_VALUE',
'Maximum model space distance between geometric entities at asserted c
onnectivities');
#994=UNCERTAINTY_MEASURE_WITH_UNIT(LENGTH_MEASURE(0.01),#997,
'DISTANCE_ACCURACY_VALUE',
'Maximum model space distance between geometric entities at asserted c
onnectivities');
#995=(
GEOMETRIC_REPRESENTATION_CONTEXT(3)
GLOBAL_UNCERTAINTY_ASSIGNED_CONTEXT((#993))
GLOBAL_UNIT_ASSIGNED_CONTEXT((#997,#999,#1000))
REPRESENTATION_CONTEXT('','3D')
);
#996=(
GEOMETRIC_REPRESENTATION_CONTEXT(3)
GLOBAL_UNCERTAINTY_ASSIGNED_CONTEXT((#994))
GLOBAL_UNIT_ASSIGNED_CONTEXT((#997,#999,#1000))
REPRESENTATION_CONTEXT('','3D')
);
#997=(
LENGTH_UNIT()
NAMED_UNIT(*)
SI_UNIT(.MILLI.,.METRE.)
);
#998=(
LENGTH_UNIT()
NAMED_UNIT(*)
SI_UNIT($,.METRE.)
);
#999=(
NAMED_UNIT(*)
PLANE_ANGLE_UNIT()
SI_UNIT($,.RADIAN.)
);
#1000=(
NAMED_UNIT(*)
SI_UNIT($,.STERADIAN.)
SOLID_ANGLE_UNIT()
);
#1001=SHAPE_DEFINITION_REPRESENTATION(#1002,#1003);
#1002=PRODUCT_DEFINITION_SHAPE('',$,#1005);
#1003=SHAPE_REPRESENTATION('',(#635),#995);
#1004=PRODUCT_DEFINITION_CONTEXT('part definition',#1009,'design');
#1005=PRODUCT_DEFINITION('shelf v1','shelf v1 v4',#1006,#1004);
#1006=PRODUCT_DEFINITION_FORMATION('',$,#1011);
#1007=PRODUCT_RELATED_PRODUCT_CATEGORY('shelf v1 v4','shelf v1 v4',(#1011));
#1008=APPLICATION_PROTOCOL_DEFINITION('international standard',
'automotive_design',2009,#1009);
#1009=APPLICATION_CONTEXT(
'Core Data for Automotive Mechanical Design Process');
#1010=PRODUCT_CONTEXT('part definition',#1009,'mechanical');
#1011=PRODUCT('shelf v1','shelf v1 v4',$,(#1010));
#1012=PRESENTATION_STYLE_ASSIGNMENT((#1014));
#1013=PRESENTATION_STYLE_ASSIGNMENT((#1015));
#1014=SURFACE_STYLE_USAGE(.BOTH.,#1016);
#1015=SURFACE_STYLE_USAGE(.BOTH.,#1017);
#1016=SURFACE_SIDE_STYLE('',(#1018));
#1017=SURFACE_SIDE_STYLE('',(#1019));
#1018=SURFACE_STYLE_FILL_AREA(#1020);
#1019=SURFACE_STYLE_FILL_AREA(#1021);
#1020=FILL_AREA_STYLE('Steel - Satin',(#1022));
#1021=FILL_AREA_STYLE('Plastic - Translucent Matte (Green)',(#1023));
#1022=FILL_AREA_STYLE_COLOUR('Steel - Satin',#1024);
#1023=FILL_AREA_STYLE_COLOUR('Plastic - Translucent Matte (Green)',#1025);
#1024=COLOUR_RGB('Steel - Satin',0.627450980392157,0.627450980392157,0.627450980392157);
#1025=COLOUR_RGB('Plastic - Translucent Matte (Green)',0.266666666666667,
0.588235294117647,0.282352941176471);
ENDSEC;
END-ISO-10303-21;
