ISO-10303-21;
HEADER;
/* Generated by software containing ST-Developer
 * from STEP Tools, Inc. (www.steptools.com) 
 */

FILE_DESCRIPTION(
/* description */ (''),
/* implementation_level */ '2;1');

FILE_NAME(
/* name */ 'shouder_first_part_v2 v4.step',
/* time_stamp */ '2025-11-01T12:52:33+08:00',
/* author */ (''),
/* organization */ (''),
/* preprocessor_version */ 'ST-DEVELOPER v20.1',
/* originating_system */ 'Autodesk Translation Framework v14.17.0.0',
/* authorisation */ '');

FILE_SCHEMA (('AUTOMOTIVE_DESIGN { 1 0 10303 214 3 1 1 }'));
ENDSEC;

DATA;
#10=MECHANICAL_DESIGN_GEOMETRIC_PRESENTATION_REPRESENTATION('',(#13),#1233);
#11=SHAPE_REPRESENTATION_RELATIONSHIP('SRR','None',#1240,#12);
#12=ADVANCED_BREP_SHAPE_REPRESENTATION('',(#14),#1232);
#13=STYLED_ITEM('',(#1250),#14);
#14=MANIFOLD_SOLID_BREP('Body2',#751);
#15=FACE_BOUND('',#103,.T.);
#16=FACE_BOUND('',#107,.T.);
#17=FACE_BOUND('',#110,.T.);
#18=FACE_BOUND('',#113,.T.);
#19=FACE_BOUND('',#117,.T.);
#20=FACE_BOUND('',#119,.T.);
#21=FACE_BOUND('',#122,.T.);
#22=FACE_BOUND('',#125,.T.);
#23=FACE_BOUND('',#149,.T.);
#24=FACE_BOUND('',#150,.T.);
#25=FACE_BOUND('',#151,.T.);
#26=PLANE('',#771);
#27=PLANE('',#778);
#28=PLANE('',#782);
#29=PLANE('',#787);
#30=PLANE('',#793);
#31=PLANE('',#794);
#32=PLANE('',#795);
#33=PLANE('',#796);
#34=PLANE('',#797);
#35=PLANE('',#798);
#36=PLANE('',#799);
#37=PLANE('',#800);
#38=PLANE('',#801);
#39=PLANE('',#802);
#40=PLANE('',#803);
#41=PLANE('',#804);
#42=PLANE('',#805);
#43=PLANE('',#806);
#44=PLANE('',#807);
#45=PLANE('',#808);
#46=PLANE('',#809);
#47=PLANE('',#810);
#48=PLANE('',#811);
#49=PLANE('',#812);
#50=PLANE('',#813);
#51=PLANE('',#814);
#52=PLANE('',#815);
#53=PLANE('',#816);
#54=PLANE('',#817);
#55=PLANE('',#818);
#56=PLANE('',#819);
#57=PLANE('',#820);
#58=PLANE('',#821);
#59=FACE_OUTER_BOUND('',#100,.T.);
#60=FACE_OUTER_BOUND('',#101,.T.);
#61=FACE_OUTER_BOUND('',#102,.T.);
#62=FACE_OUTER_BOUND('',#104,.T.);
#63=FACE_OUTER_BOUND('',#105,.T.);
#64=FACE_OUTER_BOUND('',#106,.T.);
#65=FACE_OUTER_BOUND('',#108,.T.);
#66=FACE_OUTER_BOUND('',#109,.T.);
#67=FACE_OUTER_BOUND('',#111,.T.);
#68=FACE_OUTER_BOUND('',#112,.T.);
#69=FACE_OUTER_BOUND('',#114,.T.);
#70=FACE_OUTER_BOUND('',#115,.T.);
#71=FACE_OUTER_BOUND('',#116,.T.);
#72=FACE_OUTER_BOUND('',#118,.T.);
#73=FACE_OUTER_BOUND('',#120,.T.);
#74=FACE_OUTER_BOUND('',#121,.T.);
#75=FACE_OUTER_BOUND('',#123,.T.);
#76=FACE_OUTER_BOUND('',#124,.T.);
#77=FACE_OUTER_BOUND('',#126,.T.);
#78=FACE_OUTER_BOUND('',#127,.T.);
#79=FACE_OUTER_BOUND('',#128,.T.);
#80=FACE_OUTER_BOUND('',#129,.T.);
#81=FACE_OUTER_BOUND('',#130,.T.);
#82=FACE_OUTER_BOUND('',#131,.T.);
#83=FACE_OUTER_BOUND('',#132,.T.);
#84=FACE_OUTER_BOUND('',#133,.T.);
#85=FACE_OUTER_BOUND('',#134,.T.);
#86=FACE_OUTER_BOUND('',#135,.T.);
#87=FACE_OUTER_BOUND('',#136,.T.);
#88=FACE_OUTER_BOUND('',#137,.T.);
#89=FACE_OUTER_BOUND('',#138,.T.);
#90=FACE_OUTER_BOUND('',#139,.T.);
#91=FACE_OUTER_BOUND('',#140,.T.);
#92=FACE_OUTER_BOUND('',#141,.T.);
#93=FACE_OUTER_BOUND('',#142,.T.);
#94=FACE_OUTER_BOUND('',#143,.T.);
#95=FACE_OUTER_BOUND('',#144,.T.);
#96=FACE_OUTER_BOUND('',#145,.T.);
#97=FACE_OUTER_BOUND('',#146,.T.);
#98=FACE_OUTER_BOUND('',#147,.T.);
#99=FACE_OUTER_BOUND('',#148,.T.);
#100=EDGE_LOOP('',(#502,#503,#504,#505));
#101=EDGE_LOOP('',(#506,#507,#508,#509));
#102=EDGE_LOOP('',(#510));
#103=EDGE_LOOP('',(#511));
#104=EDGE_LOOP('',(#512,#513,#514,#515));
#105=EDGE_LOOP('',(#516,#517,#518,#519));
#106=EDGE_LOOP('',(#520));
#107=EDGE_LOOP('',(#521));
#108=EDGE_LOOP('',(#522,#523,#524,#525));
#109=EDGE_LOOP('',(#526));
#110=EDGE_LOOP('',(#527));
#111=EDGE_LOOP('',(#528,#529,#530,#531));
#112=EDGE_LOOP('',(#532));
#113=EDGE_LOOP('',(#533));
#114=EDGE_LOOP('',(#534,#535,#536,#537));
#115=EDGE_LOOP('',(#538,#539,#540,#541));
#116=EDGE_LOOP('',(#542,#543,#544,#545));
#117=EDGE_LOOP('',(#546,#547,#548,#549));
#118=EDGE_LOOP('',(#550,#551,#552,#553));
#119=EDGE_LOOP('',(#554));
#120=EDGE_LOOP('',(#555,#556,#557,#558));
#121=EDGE_LOOP('',(#559,#560,#561,#562));
#122=EDGE_LOOP('',(#563));
#123=EDGE_LOOP('',(#564,#565,#566,#567));
#124=EDGE_LOOP('',(#568,#569,#570,#571));
#125=EDGE_LOOP('',(#572));
#126=EDGE_LOOP('',(#573,#574,#575,#576));
#127=EDGE_LOOP('',(#577,#578,#579,#580));
#128=EDGE_LOOP('',(#581,#582,#583,#584,#585,#586,#587));
#129=EDGE_LOOP('',(#588,#589,#590,#591));
#130=EDGE_LOOP('',(#592,#593,#594,#595,#596,#597,#598));
#131=EDGE_LOOP('',(#599,#600,#601,#602,#603,#604,#605,#606));
#132=EDGE_LOOP('',(#607,#608,#609,#610,#611,#612,#613,#614));
#133=EDGE_LOOP('',(#615,#616,#617,#618));
#134=EDGE_LOOP('',(#619,#620,#621,#622,#623,#624,#625,#626,#627,#628));
#135=EDGE_LOOP('',(#629));
#136=EDGE_LOOP('',(#630));
#137=EDGE_LOOP('',(#631,#632,#633,#634));
#138=EDGE_LOOP('',(#635,#636,#637,#638));
#139=EDGE_LOOP('',(#639,#640,#641,#642));
#140=EDGE_LOOP('',(#643,#644,#645,#646));
#141=EDGE_LOOP('',(#647,#648,#649,#650));
#142=EDGE_LOOP('',(#651,#652,#653,#654,#655,#656,#657,#658));
#143=EDGE_LOOP('',(#659,#660,#661,#662,#663,#664,#665,#666,#667,#668));
#144=EDGE_LOOP('',(#669,#670,#671,#672));
#145=EDGE_LOOP('',(#673,#674,#675,#676));
#146=EDGE_LOOP('',(#677,#678,#679,#680));
#147=EDGE_LOOP('',(#681,#682,#683,#684,#685,#686,#687,#688,#689,#690));
#148=EDGE_LOOP('',(#691,#692,#693,#694,#695,#696,#697,#698));
#149=EDGE_LOOP('',(#699));
#150=EDGE_LOOP('',(#700));
#151=EDGE_LOOP('',(#701));
#152=LINE('',#1027,#236);
#153=LINE('',#1033,#237);
#154=LINE('',#1040,#238);
#155=LINE('',#1046,#239);
#156=LINE('',#1053,#240);
#157=LINE('',#1062,#241);
#158=LINE('',#1070,#242);
#159=LINE('',#1073,#243);
#160=LINE('',#1078,#244);
#161=LINE('',#1080,#245);
#162=LINE('',#1082,#246);
#163=LINE('',#1083,#247);
#164=LINE('',#1086,#248);
#165=LINE('',#1088,#249);
#166=LINE('',#1090,#250);
#167=LINE('',#1091,#251);
#168=LINE('',#1095,#252);
#169=LINE('',#1096,#253);
#170=LINE('',#1097,#254);
#171=LINE('',#1100,#255);
#172=LINE('',#1101,#256);
#173=LINE('',#1104,#257);
#174=LINE('',#1105,#258);
#175=LINE('',#1107,#259);
#176=LINE('',#1111,#260);
#177=LINE('',#1112,#261);
#178=LINE('',#1113,#262);
#179=LINE('',#1116,#263);
#180=LINE('',#1118,#264);
#181=LINE('',#1119,#265);
#182=LINE('',#1123,#266);
#183=LINE('',#1125,#267);
#184=LINE('',#1127,#268);
#185=LINE('',#1128,#269);
#186=LINE('',#1131,#270);
#187=LINE('',#1133,#271);
#188=LINE('',#1135,#272);
#189=LINE('',#1137,#273);
#190=LINE('',#1139,#274);
#191=LINE('',#1140,#275);
#192=LINE('',#1144,#276);
#193=LINE('',#1146,#277);
#194=LINE('',#1148,#278);
#195=LINE('',#1149,#279);
#196=LINE('',#1152,#280);
#197=LINE('',#1154,#281);
#198=LINE('',#1156,#282);
#199=LINE('',#1158,#283);
#200=LINE('',#1160,#284);
#201=LINE('',#1161,#285);
#202=LINE('',#1164,#286);
#203=LINE('',#1166,#287);
#204=LINE('',#1168,#288);
#205=LINE('',#1170,#289);
#206=LINE('',#1171,#290);
#207=LINE('',#1172,#291);
#208=LINE('',#1174,#292);
#209=LINE('',#1176,#293);
#210=LINE('',#1178,#294);
#211=LINE('',#1179,#295);
#212=LINE('',#1183,#296);
#213=LINE('',#1184,#297);
#214=LINE('',#1185,#298);
#215=LINE('',#1186,#299);
#216=LINE('',#1193,#300);
#217=LINE('',#1195,#301);
#218=LINE('',#1197,#302);
#219=LINE('',#1198,#303);
#220=LINE('',#1201,#304);
#221=LINE('',#1203,#305);
#222=LINE('',#1204,#306);
#223=LINE('',#1207,#307);
#224=LINE('',#1209,#308);
#225=LINE('',#1210,#309);
#226=LINE('',#1212,#310);
#227=LINE('',#1214,#311);
#228=LINE('',#1215,#312);
#229=LINE('',#1216,#313);
#230=LINE('',#1219,#314);
#231=LINE('',#1220,#315);
#232=LINE('',#1222,#316);
#233=LINE('',#1224,#317);
#234=LINE('',#1226,#318);
#235=LINE('',#1228,#319);
#236=VECTOR('',#828,1.15);
#237=VECTOR('',#835,1.25);
#238=VECTOR('',#844,1.15);
#239=VECTOR('',#851,1.25);
#240=VECTOR('',#860,4.5);
#241=VECTOR('',#871,4.5);
#242=VECTOR('',#882,2.5);
#243=VECTOR('',#885,2.5);
#244=VECTOR('',#890,10.);
#245=VECTOR('',#891,10.);
#246=VECTOR('',#892,10.);
#247=VECTOR('',#893,10.);
#248=VECTOR('',#894,10.);
#249=VECTOR('',#895,10.);
#250=VECTOR('',#896,10.);
#251=VECTOR('',#897,10.);
#252=VECTOR('',#900,10.);
#253=VECTOR('',#901,10.);
#254=VECTOR('',#902,10.);
#255=VECTOR('',#905,10.);
#256=VECTOR('',#906,10.);
#257=VECTOR('',#909,10.);
#258=VECTOR('',#910,10.);
#259=VECTOR('',#913,10.);
#260=VECTOR('',#916,10.);
#261=VECTOR('',#917,10.);
#262=VECTOR('',#918,10.);
#263=VECTOR('',#921,10.);
#264=VECTOR('',#922,10.);
#265=VECTOR('',#923,10.);
#266=VECTOR('',#926,10.);
#267=VECTOR('',#927,10.);
#268=VECTOR('',#928,10.);
#269=VECTOR('',#929,10.);
#270=VECTOR('',#932,10.);
#271=VECTOR('',#933,10.);
#272=VECTOR('',#934,10.);
#273=VECTOR('',#935,10.);
#274=VECTOR('',#936,10.);
#275=VECTOR('',#937,10.);
#276=VECTOR('',#940,10.);
#277=VECTOR('',#941,10.);
#278=VECTOR('',#942,10.);
#279=VECTOR('',#943,10.);
#280=VECTOR('',#946,10.);
#281=VECTOR('',#947,10.);
#282=VECTOR('',#948,10.);
#283=VECTOR('',#949,10.);
#284=VECTOR('',#950,10.);
#285=VECTOR('',#951,10.);
#286=VECTOR('',#954,10.);
#287=VECTOR('',#955,10.);
#288=VECTOR('',#956,10.);
#289=VECTOR('',#957,10.);
#290=VECTOR('',#958,10.);
#291=VECTOR('',#959,10.);
#292=VECTOR('',#962,10.);
#293=VECTOR('',#963,10.);
#294=VECTOR('',#964,10.);
#295=VECTOR('',#965,10.);
#296=VECTOR('',#970,10.);
#297=VECTOR('',#971,10.);
#298=VECTOR('',#972,10.);
#299=VECTOR('',#973,10.);
#300=VECTOR('',#982,10.);
#301=VECTOR('',#983,10.);
#302=VECTOR('',#984,10.);
#303=VECTOR('',#985,10.);
#304=VECTOR('',#988,10.);
#305=VECTOR('',#989,10.);
#306=VECTOR('',#990,10.);
#307=VECTOR('',#993,10.);
#308=VECTOR('',#994,10.);
#309=VECTOR('',#995,10.);
#310=VECTOR('',#998,10.);
#311=VECTOR('',#1001,10.);
#312=VECTOR('',#1002,10.);
#313=VECTOR('',#1003,10.);
#314=VECTOR('',#1006,10.);
#315=VECTOR('',#1007,10.);
#316=VECTOR('',#1010,10.);
#317=VECTOR('',#1013,10.);
#318=VECTOR('',#1016,10.);
#319=VECTOR('',#1019,10.);
#320=CIRCLE('',#766,1.15);
#321=CIRCLE('',#767,1.15);
#322=CIRCLE('',#769,1.25);
#323=CIRCLE('',#770,1.25);
#324=CIRCLE('',#773,1.15);
#325=CIRCLE('',#774,1.15);
#326=CIRCLE('',#776,1.25);
#327=CIRCLE('',#777,1.25);
#328=CIRCLE('',#780,4.5);
#329=CIRCLE('',#781,4.5);
#330=CIRCLE('',#783,2.5);
#331=CIRCLE('',#785,4.5);
#332=CIRCLE('',#786,4.5);
#333=CIRCLE('',#788,2.5);
#334=CIRCLE('',#790,2.5);
#335=CIRCLE('',#792,2.5);
#336=VERTEX_POINT('',#1024);
#337=VERTEX_POINT('',#1026);
#338=VERTEX_POINT('',#1030);
#339=VERTEX_POINT('',#1032);
#340=VERTEX_POINT('',#1037);
#341=VERTEX_POINT('',#1039);
#342=VERTEX_POINT('',#1043);
#343=VERTEX_POINT('',#1045);
#344=VERTEX_POINT('',#1050);
#345=VERTEX_POINT('',#1052);
#346=VERTEX_POINT('',#1056);
#347=VERTEX_POINT('',#1059);
#348=VERTEX_POINT('',#1061);
#349=VERTEX_POINT('',#1065);
#350=VERTEX_POINT('',#1068);
#351=VERTEX_POINT('',#1072);
#352=VERTEX_POINT('',#1076);
#353=VERTEX_POINT('',#1077);
#354=VERTEX_POINT('',#1079);
#355=VERTEX_POINT('',#1081);
#356=VERTEX_POINT('',#1084);
#357=VERTEX_POINT('',#1085);
#358=VERTEX_POINT('',#1087);
#359=VERTEX_POINT('',#1089);
#360=VERTEX_POINT('',#1093);
#361=VERTEX_POINT('',#1094);
#362=VERTEX_POINT('',#1099);
#363=VERTEX_POINT('',#1103);
#364=VERTEX_POINT('',#1109);
#365=VERTEX_POINT('',#1110);
#366=VERTEX_POINT('',#1115);
#367=VERTEX_POINT('',#1117);
#368=VERTEX_POINT('',#1121);
#369=VERTEX_POINT('',#1122);
#370=VERTEX_POINT('',#1124);
#371=VERTEX_POINT('',#1126);
#372=VERTEX_POINT('',#1130);
#373=VERTEX_POINT('',#1132);
#374=VERTEX_POINT('',#1134);
#375=VERTEX_POINT('',#1136);
#376=VERTEX_POINT('',#1138);
#377=VERTEX_POINT('',#1142);
#378=VERTEX_POINT('',#1143);
#379=VERTEX_POINT('',#1145);
#380=VERTEX_POINT('',#1147);
#381=VERTEX_POINT('',#1151);
#382=VERTEX_POINT('',#1153);
#383=VERTEX_POINT('',#1155);
#384=VERTEX_POINT('',#1157);
#385=VERTEX_POINT('',#1159);
#386=VERTEX_POINT('',#1163);
#387=VERTEX_POINT('',#1165);
#388=VERTEX_POINT('',#1167);
#389=VERTEX_POINT('',#1169);
#390=VERTEX_POINT('',#1175);
#391=VERTEX_POINT('',#1177);
#392=VERTEX_POINT('',#1182);
#393=VERTEX_POINT('',#1191);
#394=VERTEX_POINT('',#1192);
#395=VERTEX_POINT('',#1194);
#396=VERTEX_POINT('',#1196);
#397=VERTEX_POINT('',#1200);
#398=VERTEX_POINT('',#1202);
#399=VERTEX_POINT('',#1206);
#400=VERTEX_POINT('',#1208);
#401=VERTEX_POINT('',#1218);
#402=EDGE_CURVE('',#336,#336,#320,.T.);
#403=EDGE_CURVE('',#336,#337,#152,.T.);
#404=EDGE_CURVE('',#337,#337,#321,.T.);
#405=EDGE_CURVE('',#338,#338,#322,.T.);
#406=EDGE_CURVE('',#338,#339,#153,.T.);
#407=EDGE_CURVE('',#339,#339,#323,.T.);
#408=EDGE_CURVE('',#340,#340,#324,.T.);
#409=EDGE_CURVE('',#340,#341,#154,.T.);
#410=EDGE_CURVE('',#341,#341,#325,.T.);
#411=EDGE_CURVE('',#342,#342,#326,.T.);
#412=EDGE_CURVE('',#342,#343,#155,.T.);
#413=EDGE_CURVE('',#343,#343,#327,.T.);
#414=EDGE_CURVE('',#344,#344,#328,.T.);
#415=EDGE_CURVE('',#344,#345,#156,.T.);
#416=EDGE_CURVE('',#345,#345,#329,.T.);
#417=EDGE_CURVE('',#346,#346,#330,.T.);
#418=EDGE_CURVE('',#347,#347,#331,.T.);
#419=EDGE_CURVE('',#347,#348,#157,.T.);
#420=EDGE_CURVE('',#348,#348,#332,.T.);
#421=EDGE_CURVE('',#349,#349,#333,.T.);
#422=EDGE_CURVE('',#350,#350,#334,.T.);
#423=EDGE_CURVE('',#350,#346,#158,.T.);
#424=EDGE_CURVE('',#349,#351,#159,.T.);
#425=EDGE_CURVE('',#351,#351,#335,.T.);
#426=EDGE_CURVE('',#352,#353,#160,.T.);
#427=EDGE_CURVE('',#353,#354,#161,.T.);
#428=EDGE_CURVE('',#354,#355,#162,.T.);
#429=EDGE_CURVE('',#355,#352,#163,.T.);
#430=EDGE_CURVE('',#356,#357,#164,.T.);
#431=EDGE_CURVE('',#357,#358,#165,.T.);
#432=EDGE_CURVE('',#358,#359,#166,.T.);
#433=EDGE_CURVE('',#359,#356,#167,.T.);
#434=EDGE_CURVE('',#360,#361,#168,.T.);
#435=EDGE_CURVE('',#360,#358,#169,.T.);
#436=EDGE_CURVE('',#361,#357,#170,.T.);
#437=EDGE_CURVE('',#361,#362,#171,.T.);
#438=EDGE_CURVE('',#362,#356,#172,.T.);
#439=EDGE_CURVE('',#362,#363,#173,.T.);
#440=EDGE_CURVE('',#363,#359,#174,.T.);
#441=EDGE_CURVE('',#363,#360,#175,.T.);
#442=EDGE_CURVE('',#364,#365,#176,.T.);
#443=EDGE_CURVE('',#364,#354,#177,.T.);
#444=EDGE_CURVE('',#365,#353,#178,.T.);
#445=EDGE_CURVE('',#365,#366,#179,.T.);
#446=EDGE_CURVE('',#367,#366,#180,.T.);
#447=EDGE_CURVE('',#364,#367,#181,.T.);
#448=EDGE_CURVE('',#368,#369,#182,.T.);
#449=EDGE_CURVE('',#370,#368,#183,.T.);
#450=EDGE_CURVE('',#370,#371,#184,.T.);
#451=EDGE_CURVE('',#369,#371,#185,.T.);
#452=EDGE_CURVE('',#371,#372,#186,.T.);
#453=EDGE_CURVE('',#372,#373,#187,.T.);
#454=EDGE_CURVE('',#374,#373,#188,.T.);
#455=EDGE_CURVE('',#374,#375,#189,.T.);
#456=EDGE_CURVE('',#376,#375,#190,.T.);
#457=EDGE_CURVE('',#376,#369,#191,.T.);
#458=EDGE_CURVE('',#377,#378,#192,.T.);
#459=EDGE_CURVE('',#379,#377,#193,.T.);
#460=EDGE_CURVE('',#379,#380,#194,.T.);
#461=EDGE_CURVE('',#378,#380,#195,.T.);
#462=EDGE_CURVE('',#377,#381,#196,.T.);
#463=EDGE_CURVE('',#381,#382,#197,.T.);
#464=EDGE_CURVE('',#382,#383,#198,.T.);
#465=EDGE_CURVE('',#384,#383,#199,.T.);
#466=EDGE_CURVE('',#385,#384,#200,.T.);
#467=EDGE_CURVE('',#385,#379,#201,.T.);
#468=EDGE_CURVE('',#386,#374,#202,.T.);
#469=EDGE_CURVE('',#387,#386,#203,.T.);
#470=EDGE_CURVE('',#388,#387,#204,.T.);
#471=EDGE_CURVE('',#389,#388,#205,.T.);
#472=EDGE_CURVE('',#383,#389,#206,.T.);
#473=EDGE_CURVE('',#375,#382,#207,.T.);
#474=EDGE_CURVE('',#381,#376,#208,.T.);
#475=EDGE_CURVE('',#390,#378,#209,.T.);
#476=EDGE_CURVE('',#391,#390,#210,.T.);
#477=EDGE_CURVE('',#368,#391,#211,.T.);
#478=EDGE_CURVE('',#380,#392,#212,.T.);
#479=EDGE_CURVE('',#366,#392,#213,.T.);
#480=EDGE_CURVE('',#389,#352,#214,.T.);
#481=EDGE_CURVE('',#390,#388,#215,.T.);
#482=EDGE_CURVE('',#393,#394,#216,.T.);
#483=EDGE_CURVE('',#393,#395,#217,.T.);
#484=EDGE_CURVE('',#395,#396,#218,.T.);
#485=EDGE_CURVE('',#394,#396,#219,.T.);
#486=EDGE_CURVE('',#397,#393,#220,.T.);
#487=EDGE_CURVE('',#397,#398,#221,.T.);
#488=EDGE_CURVE('',#398,#395,#222,.T.);
#489=EDGE_CURVE('',#399,#397,#223,.T.);
#490=EDGE_CURVE('',#400,#399,#224,.T.);
#491=EDGE_CURVE('',#400,#398,#225,.T.);
#492=EDGE_CURVE('',#396,#400,#226,.T.);
#493=EDGE_CURVE('',#394,#379,#227,.T.);
#494=EDGE_CURVE('',#372,#385,#228,.T.);
#495=EDGE_CURVE('',#371,#399,#229,.T.);
#496=EDGE_CURVE('',#401,#370,#230,.T.);
#497=EDGE_CURVE('',#392,#401,#231,.T.);
#498=EDGE_CURVE('',#401,#367,#232,.T.);
#499=EDGE_CURVE('',#373,#384,#233,.T.);
#500=EDGE_CURVE('',#391,#387,#234,.T.);
#501=EDGE_CURVE('',#386,#355,#235,.T.);
#502=ORIENTED_EDGE('',*,*,#402,.T.);
#503=ORIENTED_EDGE('',*,*,#403,.T.);
#504=ORIENTED_EDGE('',*,*,#404,.T.);
#505=ORIENTED_EDGE('',*,*,#403,.F.);
#506=ORIENTED_EDGE('',*,*,#405,.F.);
#507=ORIENTED_EDGE('',*,*,#406,.T.);
#508=ORIENTED_EDGE('',*,*,#407,.T.);
#509=ORIENTED_EDGE('',*,*,#406,.F.);
#510=ORIENTED_EDGE('',*,*,#407,.F.);
#511=ORIENTED_EDGE('',*,*,#404,.F.);
#512=ORIENTED_EDGE('',*,*,#408,.T.);
#513=ORIENTED_EDGE('',*,*,#409,.T.);
#514=ORIENTED_EDGE('',*,*,#410,.T.);
#515=ORIENTED_EDGE('',*,*,#409,.F.);
#516=ORIENTED_EDGE('',*,*,#411,.F.);
#517=ORIENTED_EDGE('',*,*,#412,.T.);
#518=ORIENTED_EDGE('',*,*,#413,.T.);
#519=ORIENTED_EDGE('',*,*,#412,.F.);
#520=ORIENTED_EDGE('',*,*,#413,.F.);
#521=ORIENTED_EDGE('',*,*,#410,.F.);
#522=ORIENTED_EDGE('',*,*,#414,.F.);
#523=ORIENTED_EDGE('',*,*,#415,.T.);
#524=ORIENTED_EDGE('',*,*,#416,.T.);
#525=ORIENTED_EDGE('',*,*,#415,.F.);
#526=ORIENTED_EDGE('',*,*,#416,.F.);
#527=ORIENTED_EDGE('',*,*,#417,.F.);
#528=ORIENTED_EDGE('',*,*,#418,.F.);
#529=ORIENTED_EDGE('',*,*,#419,.T.);
#530=ORIENTED_EDGE('',*,*,#420,.T.);
#531=ORIENTED_EDGE('',*,*,#419,.F.);
#532=ORIENTED_EDGE('',*,*,#420,.F.);
#533=ORIENTED_EDGE('',*,*,#421,.F.);
#534=ORIENTED_EDGE('',*,*,#422,.F.);
#535=ORIENTED_EDGE('',*,*,#423,.T.);
#536=ORIENTED_EDGE('',*,*,#417,.T.);
#537=ORIENTED_EDGE('',*,*,#423,.F.);
#538=ORIENTED_EDGE('',*,*,#421,.T.);
#539=ORIENTED_EDGE('',*,*,#424,.T.);
#540=ORIENTED_EDGE('',*,*,#425,.F.);
#541=ORIENTED_EDGE('',*,*,#424,.F.);
#542=ORIENTED_EDGE('',*,*,#426,.T.);
#543=ORIENTED_EDGE('',*,*,#427,.T.);
#544=ORIENTED_EDGE('',*,*,#428,.T.);
#545=ORIENTED_EDGE('',*,*,#429,.T.);
#546=ORIENTED_EDGE('',*,*,#430,.T.);
#547=ORIENTED_EDGE('',*,*,#431,.T.);
#548=ORIENTED_EDGE('',*,*,#432,.T.);
#549=ORIENTED_EDGE('',*,*,#433,.T.);
#550=ORIENTED_EDGE('',*,*,#434,.F.);
#551=ORIENTED_EDGE('',*,*,#435,.T.);
#552=ORIENTED_EDGE('',*,*,#431,.F.);
#553=ORIENTED_EDGE('',*,*,#436,.F.);
#554=ORIENTED_EDGE('',*,*,#425,.T.);
#555=ORIENTED_EDGE('',*,*,#437,.F.);
#556=ORIENTED_EDGE('',*,*,#436,.T.);
#557=ORIENTED_EDGE('',*,*,#430,.F.);
#558=ORIENTED_EDGE('',*,*,#438,.F.);
#559=ORIENTED_EDGE('',*,*,#439,.F.);
#560=ORIENTED_EDGE('',*,*,#438,.T.);
#561=ORIENTED_EDGE('',*,*,#433,.F.);
#562=ORIENTED_EDGE('',*,*,#440,.F.);
#563=ORIENTED_EDGE('',*,*,#422,.T.);
#564=ORIENTED_EDGE('',*,*,#441,.F.);
#565=ORIENTED_EDGE('',*,*,#440,.T.);
#566=ORIENTED_EDGE('',*,*,#432,.F.);
#567=ORIENTED_EDGE('',*,*,#435,.F.);
#568=ORIENTED_EDGE('',*,*,#442,.F.);
#569=ORIENTED_EDGE('',*,*,#443,.T.);
#570=ORIENTED_EDGE('',*,*,#427,.F.);
#571=ORIENTED_EDGE('',*,*,#444,.F.);
#572=ORIENTED_EDGE('',*,*,#414,.T.);
#573=ORIENTED_EDGE('',*,*,#442,.T.);
#574=ORIENTED_EDGE('',*,*,#445,.T.);
#575=ORIENTED_EDGE('',*,*,#446,.F.);
#576=ORIENTED_EDGE('',*,*,#447,.F.);
#577=ORIENTED_EDGE('',*,*,#448,.F.);
#578=ORIENTED_EDGE('',*,*,#449,.F.);
#579=ORIENTED_EDGE('',*,*,#450,.T.);
#580=ORIENTED_EDGE('',*,*,#451,.F.);
#581=ORIENTED_EDGE('',*,*,#451,.T.);
#582=ORIENTED_EDGE('',*,*,#452,.T.);
#583=ORIENTED_EDGE('',*,*,#453,.T.);
#584=ORIENTED_EDGE('',*,*,#454,.F.);
#585=ORIENTED_EDGE('',*,*,#455,.T.);
#586=ORIENTED_EDGE('',*,*,#456,.F.);
#587=ORIENTED_EDGE('',*,*,#457,.T.);
#588=ORIENTED_EDGE('',*,*,#458,.F.);
#589=ORIENTED_EDGE('',*,*,#459,.F.);
#590=ORIENTED_EDGE('',*,*,#460,.T.);
#591=ORIENTED_EDGE('',*,*,#461,.F.);
#592=ORIENTED_EDGE('',*,*,#459,.T.);
#593=ORIENTED_EDGE('',*,*,#462,.T.);
#594=ORIENTED_EDGE('',*,*,#463,.T.);
#595=ORIENTED_EDGE('',*,*,#464,.T.);
#596=ORIENTED_EDGE('',*,*,#465,.F.);
#597=ORIENTED_EDGE('',*,*,#466,.F.);
#598=ORIENTED_EDGE('',*,*,#467,.T.);
#599=ORIENTED_EDGE('',*,*,#455,.F.);
#600=ORIENTED_EDGE('',*,*,#468,.F.);
#601=ORIENTED_EDGE('',*,*,#469,.F.);
#602=ORIENTED_EDGE('',*,*,#470,.F.);
#603=ORIENTED_EDGE('',*,*,#471,.F.);
#604=ORIENTED_EDGE('',*,*,#472,.F.);
#605=ORIENTED_EDGE('',*,*,#464,.F.);
#606=ORIENTED_EDGE('',*,*,#473,.F.);
#607=ORIENTED_EDGE('',*,*,#457,.F.);
#608=ORIENTED_EDGE('',*,*,#474,.F.);
#609=ORIENTED_EDGE('',*,*,#462,.F.);
#610=ORIENTED_EDGE('',*,*,#458,.T.);
#611=ORIENTED_EDGE('',*,*,#475,.F.);
#612=ORIENTED_EDGE('',*,*,#476,.F.);
#613=ORIENTED_EDGE('',*,*,#477,.F.);
#614=ORIENTED_EDGE('',*,*,#448,.T.);
#615=ORIENTED_EDGE('',*,*,#473,.T.);
#616=ORIENTED_EDGE('',*,*,#463,.F.);
#617=ORIENTED_EDGE('',*,*,#474,.T.);
#618=ORIENTED_EDGE('',*,*,#456,.T.);
#619=ORIENTED_EDGE('',*,*,#478,.T.);
#620=ORIENTED_EDGE('',*,*,#479,.F.);
#621=ORIENTED_EDGE('',*,*,#445,.F.);
#622=ORIENTED_EDGE('',*,*,#444,.T.);
#623=ORIENTED_EDGE('',*,*,#426,.F.);
#624=ORIENTED_EDGE('',*,*,#480,.F.);
#625=ORIENTED_EDGE('',*,*,#471,.T.);
#626=ORIENTED_EDGE('',*,*,#481,.F.);
#627=ORIENTED_EDGE('',*,*,#475,.T.);
#628=ORIENTED_EDGE('',*,*,#461,.T.);
#629=ORIENTED_EDGE('',*,*,#408,.F.);
#630=ORIENTED_EDGE('',*,*,#402,.F.);
#631=ORIENTED_EDGE('',*,*,#434,.T.);
#632=ORIENTED_EDGE('',*,*,#437,.T.);
#633=ORIENTED_EDGE('',*,*,#439,.T.);
#634=ORIENTED_EDGE('',*,*,#441,.T.);
#635=ORIENTED_EDGE('',*,*,#482,.F.);
#636=ORIENTED_EDGE('',*,*,#483,.T.);
#637=ORIENTED_EDGE('',*,*,#484,.T.);
#638=ORIENTED_EDGE('',*,*,#485,.F.);
#639=ORIENTED_EDGE('',*,*,#486,.F.);
#640=ORIENTED_EDGE('',*,*,#487,.T.);
#641=ORIENTED_EDGE('',*,*,#488,.T.);
#642=ORIENTED_EDGE('',*,*,#483,.F.);
#643=ORIENTED_EDGE('',*,*,#489,.F.);
#644=ORIENTED_EDGE('',*,*,#490,.F.);
#645=ORIENTED_EDGE('',*,*,#491,.T.);
#646=ORIENTED_EDGE('',*,*,#487,.F.);
#647=ORIENTED_EDGE('',*,*,#491,.F.);
#648=ORIENTED_EDGE('',*,*,#492,.F.);
#649=ORIENTED_EDGE('',*,*,#484,.F.);
#650=ORIENTED_EDGE('',*,*,#488,.F.);
#651=ORIENTED_EDGE('',*,*,#489,.T.);
#652=ORIENTED_EDGE('',*,*,#486,.T.);
#653=ORIENTED_EDGE('',*,*,#482,.T.);
#654=ORIENTED_EDGE('',*,*,#493,.T.);
#655=ORIENTED_EDGE('',*,*,#467,.F.);
#656=ORIENTED_EDGE('',*,*,#494,.F.);
#657=ORIENTED_EDGE('',*,*,#452,.F.);
#658=ORIENTED_EDGE('',*,*,#495,.T.);
#659=ORIENTED_EDGE('',*,*,#490,.T.);
#660=ORIENTED_EDGE('',*,*,#495,.F.);
#661=ORIENTED_EDGE('',*,*,#450,.F.);
#662=ORIENTED_EDGE('',*,*,#496,.F.);
#663=ORIENTED_EDGE('',*,*,#497,.F.);
#664=ORIENTED_EDGE('',*,*,#478,.F.);
#665=ORIENTED_EDGE('',*,*,#460,.F.);
#666=ORIENTED_EDGE('',*,*,#493,.F.);
#667=ORIENTED_EDGE('',*,*,#485,.T.);
#668=ORIENTED_EDGE('',*,*,#492,.T.);
#669=ORIENTED_EDGE('',*,*,#497,.T.);
#670=ORIENTED_EDGE('',*,*,#498,.T.);
#671=ORIENTED_EDGE('',*,*,#446,.T.);
#672=ORIENTED_EDGE('',*,*,#479,.T.);
#673=ORIENTED_EDGE('',*,*,#494,.T.);
#674=ORIENTED_EDGE('',*,*,#466,.T.);
#675=ORIENTED_EDGE('',*,*,#499,.F.);
#676=ORIENTED_EDGE('',*,*,#453,.F.);
#677=ORIENTED_EDGE('',*,*,#470,.T.);
#678=ORIENTED_EDGE('',*,*,#500,.F.);
#679=ORIENTED_EDGE('',*,*,#476,.T.);
#680=ORIENTED_EDGE('',*,*,#481,.T.);
#681=ORIENTED_EDGE('',*,*,#449,.T.);
#682=ORIENTED_EDGE('',*,*,#477,.T.);
#683=ORIENTED_EDGE('',*,*,#500,.T.);
#684=ORIENTED_EDGE('',*,*,#469,.T.);
#685=ORIENTED_EDGE('',*,*,#501,.T.);
#686=ORIENTED_EDGE('',*,*,#428,.F.);
#687=ORIENTED_EDGE('',*,*,#443,.F.);
#688=ORIENTED_EDGE('',*,*,#447,.T.);
#689=ORIENTED_EDGE('',*,*,#498,.F.);
#690=ORIENTED_EDGE('',*,*,#496,.T.);
#691=ORIENTED_EDGE('',*,*,#468,.T.);
#692=ORIENTED_EDGE('',*,*,#454,.T.);
#693=ORIENTED_EDGE('',*,*,#499,.T.);
#694=ORIENTED_EDGE('',*,*,#465,.T.);
#695=ORIENTED_EDGE('',*,*,#472,.T.);
#696=ORIENTED_EDGE('',*,*,#480,.T.);
#697=ORIENTED_EDGE('',*,*,#429,.F.);
#698=ORIENTED_EDGE('',*,*,#501,.F.);
#699=ORIENTED_EDGE('',*,*,#405,.T.);
#700=ORIENTED_EDGE('',*,*,#411,.T.);
#701=ORIENTED_EDGE('',*,*,#418,.T.);
#702=CYLINDRICAL_SURFACE('',#765,1.15);
#703=CYLINDRICAL_SURFACE('',#768,1.25);
#704=CYLINDRICAL_SURFACE('',#772,1.15);
#705=CYLINDRICAL_SURFACE('',#775,1.25);
#706=CYLINDRICAL_SURFACE('',#779,4.5);
#707=CYLINDRICAL_SURFACE('',#784,4.5);
#708=CYLINDRICAL_SURFACE('',#789,2.5);
#709=CYLINDRICAL_SURFACE('',#791,2.5);
#710=ADVANCED_FACE('',(#59),#702,.T.);
#711=ADVANCED_FACE('',(#60),#703,.F.);
#712=ADVANCED_FACE('',(#61,#15),#26,.T.);
#713=ADVANCED_FACE('',(#62),#704,.T.);
#714=ADVANCED_FACE('',(#63),#705,.F.);
#715=ADVANCED_FACE('',(#64,#16),#27,.T.);
#716=ADVANCED_FACE('',(#65),#706,.F.);
#717=ADVANCED_FACE('',(#66,#17),#28,.T.);
#718=ADVANCED_FACE('',(#67),#707,.F.);
#719=ADVANCED_FACE('',(#68,#18),#29,.T.);
#720=ADVANCED_FACE('',(#69),#708,.F.);
#721=ADVANCED_FACE('',(#70),#709,.F.);
#722=ADVANCED_FACE('',(#71,#19),#30,.T.);
#723=ADVANCED_FACE('',(#72,#20),#31,.T.);
#724=ADVANCED_FACE('',(#73),#32,.T.);
#725=ADVANCED_FACE('',(#74,#21),#33,.T.);
#726=ADVANCED_FACE('',(#75),#34,.T.);
#727=ADVANCED_FACE('',(#76,#22),#35,.T.);
#728=ADVANCED_FACE('',(#77),#36,.T.);
#729=ADVANCED_FACE('',(#78),#37,.F.);
#730=ADVANCED_FACE('',(#79),#38,.T.);
#731=ADVANCED_FACE('',(#80),#39,.F.);
#732=ADVANCED_FACE('',(#81),#40,.T.);
#733=ADVANCED_FACE('',(#82),#41,.F.);
#734=ADVANCED_FACE('',(#83),#42,.F.);
#735=ADVANCED_FACE('',(#84),#43,.T.);
#736=ADVANCED_FACE('',(#85),#44,.T.);
#737=ADVANCED_FACE('',(#86),#45,.T.);
#738=ADVANCED_FACE('',(#87),#46,.T.);
#739=ADVANCED_FACE('',(#88),#47,.T.);
#740=ADVANCED_FACE('',(#89),#48,.F.);
#741=ADVANCED_FACE('',(#90),#49,.F.);
#742=ADVANCED_FACE('',(#91),#50,.F.);
#743=ADVANCED_FACE('',(#92),#51,.F.);
#744=ADVANCED_FACE('',(#93),#52,.F.);
#745=ADVANCED_FACE('',(#94),#53,.F.);
#746=ADVANCED_FACE('',(#95),#54,.T.);
#747=ADVANCED_FACE('',(#96),#55,.T.);
#748=ADVANCED_FACE('',(#97),#56,.T.);
#749=ADVANCED_FACE('',(#98),#57,.T.);
#750=ADVANCED_FACE('',(#99,#23,#24,#25),#58,.T.);
#751=CLOSED_SHELL('',(#710,#711,#712,#713,#714,#715,#716,#717,#718,#719,
#720,#721,#722,#723,#724,#725,#726,#727,#728,#729,#730,#731,#732,#733,#734,
#735,#736,#737,#738,#739,#740,#741,#742,#743,#744,#745,#746,#747,#748,#749,
#750));
#752=DERIVED_UNIT_ELEMENT(#754,1.);
#753=DERIVED_UNIT_ELEMENT(#1235,-3.);
#754=(
MASS_UNIT()
NAMED_UNIT(*)
SI_UNIT(.KILO.,.GRAM.)
);
#755=DERIVED_UNIT((#752,#753));
#756=MEASURE_REPRESENTATION_ITEM('density measure',
POSITIVE_RATIO_MEASURE(7850.),#755);
#757=PROPERTY_DEFINITION_REPRESENTATION(#762,#759);
#758=PROPERTY_DEFINITION_REPRESENTATION(#763,#760);
#759=REPRESENTATION('material name',(#761),#1232);
#760=REPRESENTATION('density',(#756),#1232);
#761=DESCRIPTIVE_REPRESENTATION_ITEM('Steel','Steel');
#762=PROPERTY_DEFINITION('material property','material name',#1242);
#763=PROPERTY_DEFINITION('material property','density of part',#1242);
#764=AXIS2_PLACEMENT_3D('',#1022,#822,#823);
#765=AXIS2_PLACEMENT_3D('',#1023,#824,#825);
#766=AXIS2_PLACEMENT_3D('',#1025,#826,#827);
#767=AXIS2_PLACEMENT_3D('',#1028,#829,#830);
#768=AXIS2_PLACEMENT_3D('',#1029,#831,#832);
#769=AXIS2_PLACEMENT_3D('',#1031,#833,#834);
#770=AXIS2_PLACEMENT_3D('',#1034,#836,#837);
#771=AXIS2_PLACEMENT_3D('',#1035,#838,#839);
#772=AXIS2_PLACEMENT_3D('',#1036,#840,#841);
#773=AXIS2_PLACEMENT_3D('',#1038,#842,#843);
#774=AXIS2_PLACEMENT_3D('',#1041,#845,#846);
#775=AXIS2_PLACEMENT_3D('',#1042,#847,#848);
#776=AXIS2_PLACEMENT_3D('',#1044,#849,#850);
#777=AXIS2_PLACEMENT_3D('',#1047,#852,#853);
#778=AXIS2_PLACEMENT_3D('',#1048,#854,#855);
#779=AXIS2_PLACEMENT_3D('',#1049,#856,#857);
#780=AXIS2_PLACEMENT_3D('',#1051,#858,#859);
#781=AXIS2_PLACEMENT_3D('',#1054,#861,#862);
#782=AXIS2_PLACEMENT_3D('',#1055,#863,#864);
#783=AXIS2_PLACEMENT_3D('',#1057,#865,#866);
#784=AXIS2_PLACEMENT_3D('',#1058,#867,#868);
#785=AXIS2_PLACEMENT_3D('',#1060,#869,#870);
#786=AXIS2_PLACEMENT_3D('',#1063,#872,#873);
#787=AXIS2_PLACEMENT_3D('',#1064,#874,#875);
#788=AXIS2_PLACEMENT_3D('',#1066,#876,#877);
#789=AXIS2_PLACEMENT_3D('',#1067,#878,#879);
#790=AXIS2_PLACEMENT_3D('',#1069,#880,#881);
#791=AXIS2_PLACEMENT_3D('',#1071,#883,#884);
#792=AXIS2_PLACEMENT_3D('',#1074,#886,#887);
#793=AXIS2_PLACEMENT_3D('',#1075,#888,#889);
#794=AXIS2_PLACEMENT_3D('',#1092,#898,#899);
#795=AXIS2_PLACEMENT_3D('',#1098,#903,#904);
#796=AXIS2_PLACEMENT_3D('',#1102,#907,#908);
#797=AXIS2_PLACEMENT_3D('',#1106,#911,#912);
#798=AXIS2_PLACEMENT_3D('',#1108,#914,#915);
#799=AXIS2_PLACEMENT_3D('',#1114,#919,#920);
#800=AXIS2_PLACEMENT_3D('',#1120,#924,#925);
#801=AXIS2_PLACEMENT_3D('',#1129,#930,#931);
#802=AXIS2_PLACEMENT_3D('',#1141,#938,#939);
#803=AXIS2_PLACEMENT_3D('',#1150,#944,#945);
#804=AXIS2_PLACEMENT_3D('',#1162,#952,#953);
#805=AXIS2_PLACEMENT_3D('',#1173,#960,#961);
#806=AXIS2_PLACEMENT_3D('',#1180,#966,#967);
#807=AXIS2_PLACEMENT_3D('',#1181,#968,#969);
#808=AXIS2_PLACEMENT_3D('',#1187,#974,#975);
#809=AXIS2_PLACEMENT_3D('',#1188,#976,#977);
#810=AXIS2_PLACEMENT_3D('',#1189,#978,#979);
#811=AXIS2_PLACEMENT_3D('',#1190,#980,#981);
#812=AXIS2_PLACEMENT_3D('',#1199,#986,#987);
#813=AXIS2_PLACEMENT_3D('',#1205,#991,#992);
#814=AXIS2_PLACEMENT_3D('',#1211,#996,#997);
#815=AXIS2_PLACEMENT_3D('',#1213,#999,#1000);
#816=AXIS2_PLACEMENT_3D('',#1217,#1004,#1005);
#817=AXIS2_PLACEMENT_3D('',#1221,#1008,#1009);
#818=AXIS2_PLACEMENT_3D('',#1223,#1011,#1012);
#819=AXIS2_PLACEMENT_3D('',#1225,#1014,#1015);
#820=AXIS2_PLACEMENT_3D('',#1227,#1017,#1018);
#821=AXIS2_PLACEMENT_3D('',#1229,#1020,#1021);
#822=DIRECTION('axis',(0.,0.,1.));
#823=DIRECTION('refdir',(1.,0.,0.));
#824=DIRECTION('center_axis',(-1.,0.,0.));
#825=DIRECTION('ref_axis',(0.,1.,0.));
#826=DIRECTION('center_axis',(-1.,0.,0.));
#827=DIRECTION('ref_axis',(0.,1.,0.));
#828=DIRECTION('',(-1.,0.,0.));
#829=DIRECTION('center_axis',(1.,0.,0.));
#830=DIRECTION('ref_axis',(0.,1.,0.));
#831=DIRECTION('center_axis',(-1.,0.,0.));
#832=DIRECTION('ref_axis',(0.,1.,0.));
#833=DIRECTION('center_axis',(-1.,0.,0.));
#834=DIRECTION('ref_axis',(0.,1.,0.));
#835=DIRECTION('',(-1.,0.,0.));
#836=DIRECTION('center_axis',(-1.,0.,0.));
#837=DIRECTION('ref_axis',(0.,1.,0.));
#838=DIRECTION('center_axis',(1.,0.,0.));
#839=DIRECTION('ref_axis',(0.,1.,0.));
#840=DIRECTION('center_axis',(-1.,0.,0.));
#841=DIRECTION('ref_axis',(0.,1.,0.));
#842=DIRECTION('center_axis',(-1.,0.,0.));
#843=DIRECTION('ref_axis',(0.,1.,0.));
#844=DIRECTION('',(-1.,0.,0.));
#845=DIRECTION('center_axis',(1.,0.,0.));
#846=DIRECTION('ref_axis',(0.,1.,0.));
#847=DIRECTION('center_axis',(-1.,0.,0.));
#848=DIRECTION('ref_axis',(0.,1.,0.));
#849=DIRECTION('center_axis',(-1.,0.,0.));
#850=DIRECTION('ref_axis',(0.,1.,0.));
#851=DIRECTION('',(-1.,0.,0.));
#852=DIRECTION('center_axis',(-1.,0.,0.));
#853=DIRECTION('ref_axis',(0.,1.,0.));
#854=DIRECTION('center_axis',(1.,0.,0.));
#855=DIRECTION('ref_axis',(0.,1.,0.));
#856=DIRECTION('center_axis',(1.,0.,0.));
#857=DIRECTION('ref_axis',(0.,-1.,0.));
#858=DIRECTION('center_axis',(1.,1.08138606137704E-16,0.));
#859=DIRECTION('ref_axis',(0.,-1.,0.));
#860=DIRECTION('',(1.,0.,0.));
#861=DIRECTION('center_axis',(1.,0.,0.));
#862=DIRECTION('ref_axis',(0.,-1.,0.));
#863=DIRECTION('center_axis',(-1.,0.,0.));
#864=DIRECTION('ref_axis',(0.,-1.,0.));
#865=DIRECTION('center_axis',(-1.,0.,0.));
#866=DIRECTION('ref_axis',(0.,-1.,0.));
#867=DIRECTION('center_axis',(-1.,0.,0.));
#868=DIRECTION('ref_axis',(0.,1.,0.));
#869=DIRECTION('center_axis',(-1.,0.,0.));
#870=DIRECTION('ref_axis',(0.,1.,0.));
#871=DIRECTION('',(-1.,0.,0.));
#872=DIRECTION('center_axis',(-1.,0.,0.));
#873=DIRECTION('ref_axis',(0.,1.,0.));
#874=DIRECTION('center_axis',(1.,0.,0.));
#875=DIRECTION('ref_axis',(0.,1.,0.));
#876=DIRECTION('center_axis',(1.,0.,0.));
#877=DIRECTION('ref_axis',(0.,-1.,0.));
#878=DIRECTION('center_axis',(-1.,0.,0.));
#879=DIRECTION('ref_axis',(0.,-1.,0.));
#880=DIRECTION('center_axis',(-1.,0.,0.));
#881=DIRECTION('ref_axis',(0.,-1.,0.));
#882=DIRECTION('',(-1.,0.,0.));
#883=DIRECTION('center_axis',(-1.,0.,0.));
#884=DIRECTION('ref_axis',(0.,-1.,0.));
#885=DIRECTION('',(-1.,0.,0.));
#886=DIRECTION('center_axis',(1.,0.,0.));
#887=DIRECTION('ref_axis',(0.,-1.,0.));
#888=DIRECTION('center_axis',(0.,0.,-1.));
#889=DIRECTION('ref_axis',(-1.,0.,0.));
#890=DIRECTION('',(-1.,0.,0.));
#891=DIRECTION('',(0.,1.,0.));
#892=DIRECTION('',(1.,0.,0.));
#893=DIRECTION('',(0.,-1.,0.));
#894=DIRECTION('',(1.,0.,0.));
#895=DIRECTION('',(0.,1.,0.));
#896=DIRECTION('',(-1.,0.,0.));
#897=DIRECTION('',(0.,-1.,0.));
#898=DIRECTION('center_axis',(-1.,0.,0.));
#899=DIRECTION('ref_axis',(0.,1.,0.));
#900=DIRECTION('',(0.,-1.,0.));
#901=DIRECTION('',(0.,0.,-1.));
#902=DIRECTION('',(0.,0.,-1.));
#903=DIRECTION('center_axis',(0.,1.,0.));
#904=DIRECTION('ref_axis',(1.,0.,0.));
#905=DIRECTION('',(-1.,0.,0.));
#906=DIRECTION('',(0.,0.,-1.));
#907=DIRECTION('center_axis',(1.,0.,0.));
#908=DIRECTION('ref_axis',(0.,-1.,0.));
#909=DIRECTION('',(0.,1.,0.));
#910=DIRECTION('',(0.,0.,-1.));
#911=DIRECTION('center_axis',(0.,-1.,0.));
#912=DIRECTION('ref_axis',(-1.,0.,0.));
#913=DIRECTION('',(1.,0.,0.));
#914=DIRECTION('center_axis',(-1.,-1.08138606137704E-16,0.));
#915=DIRECTION('ref_axis',(-1.08138606137704E-16,1.,0.));
#916=DIRECTION('',(1.08138606137704E-16,-1.,0.));
#917=DIRECTION('',(0.,0.,-1.));
#918=DIRECTION('',(0.,0.,-1.));
#919=DIRECTION('center_axis',(0.,0.,-1.));
#920=DIRECTION('ref_axis',(0.,-1.,0.));
#921=DIRECTION('',(-1.,0.,0.));
#922=DIRECTION('',(0.,-1.,0.));
#923=DIRECTION('',(-1.,0.,0.));
#924=DIRECTION('center_axis',(1.,0.,0.));
#925=DIRECTION('ref_axis',(0.,-1.,0.));
#926=DIRECTION('',(0.,-1.,0.));
#927=DIRECTION('',(0.,0.,1.));
#928=DIRECTION('',(0.,-1.,0.));
#929=DIRECTION('',(0.,0.,-1.));
#930=DIRECTION('center_axis',(0.,-1.,0.));
#931=DIRECTION('ref_axis',(0.,0.,-1.));
#932=DIRECTION('',(0.,0.,-1.));
#933=DIRECTION('',(1.,0.,0.));
#934=DIRECTION('',(0.,0.,-1.));
#935=DIRECTION('',(-0.32450751936793,0.,0.945883116391065));
#936=DIRECTION('',(1.,0.,0.));
#937=DIRECTION('',(-0.32450751936793,0.,-0.945883116391065));
#938=DIRECTION('center_axis',(1.,0.,0.));
#939=DIRECTION('ref_axis',(0.,-1.,0.));
#940=DIRECTION('',(0.,-1.,0.));
#941=DIRECTION('',(0.,0.,1.));
#942=DIRECTION('',(0.,-1.,0.));
#943=DIRECTION('',(0.,0.,-1.));
#944=DIRECTION('center_axis',(0.,1.,0.));
#945=DIRECTION('ref_axis',(0.,0.,1.));
#946=DIRECTION('',(0.32450751936793,0.,0.945883116391065));
#947=DIRECTION('',(1.,0.,0.));
#948=DIRECTION('',(0.32450751936793,0.,-0.945883116391065));
#949=DIRECTION('',(0.,0.,1.));
#950=DIRECTION('',(1.,0.,0.));
#951=DIRECTION('',(0.,0.,1.));
#952=DIRECTION('center_axis',(-0.945883116391065,0.,-0.32450751936793));
#953=DIRECTION('ref_axis',(-0.32450751936793,0.,0.945883116391065));
#954=DIRECTION('',(0.,-1.,0.));
#955=DIRECTION('',(0.32450751936793,0.,-0.945883116391065));
#956=DIRECTION('',(0.,1.,0.));
#957=DIRECTION('',(-0.32450751936793,0.,0.945883116391065));
#958=DIRECTION('',(0.,-1.,0.));
#959=DIRECTION('',(0.,-1.,0.));
#960=DIRECTION('center_axis',(0.945883116391065,0.,-0.32450751936793));
#961=DIRECTION('ref_axis',(-0.32450751936793,0.,-0.945883116391065));
#962=DIRECTION('',(0.,1.,0.));
#963=DIRECTION('',(-0.32450751936793,0.,-0.945883116391065));
#964=DIRECTION('',(0.,-1.,0.));
#965=DIRECTION('',(0.32450751936793,0.,0.945883116391065));
#966=DIRECTION('center_axis',(0.,0.,-1.));
#967=DIRECTION('ref_axis',(0.,1.,0.));
#968=DIRECTION('center_axis',(0.,-1.,0.));
#969=DIRECTION('ref_axis',(0.,0.,-1.));
#970=DIRECTION('',(-1.,0.,0.));
#971=DIRECTION('',(0.,0.,1.));
#972=DIRECTION('',(0.,0.,-1.));
#973=DIRECTION('',(1.,0.,0.));
#974=DIRECTION('center_axis',(1.,0.,0.));
#975=DIRECTION('ref_axis',(0.,1.,0.));
#976=DIRECTION('center_axis',(1.,0.,0.));
#977=DIRECTION('ref_axis',(0.,1.,0.));
#978=DIRECTION('center_axis',(0.,0.,-1.));
#979=DIRECTION('ref_axis',(0.,-1.,0.));
#980=DIRECTION('center_axis',(0.,-1.,0.));
#981=DIRECTION('ref_axis',(0.,0.,1.));
#982=DIRECTION('',(0.,0.,1.));
#983=DIRECTION('',(-1.,0.,0.));
#984=DIRECTION('',(0.,0.,1.));
#985=DIRECTION('',(-1.,0.,0.));
#986=DIRECTION('center_axis',(0.,0.,-1.));
#987=DIRECTION('ref_axis',(0.,-1.,0.));
#988=DIRECTION('',(0.,-1.,0.));
#989=DIRECTION('',(-1.,0.,0.));
#990=DIRECTION('',(0.,-1.,0.));
#991=DIRECTION('center_axis',(0.,1.,0.));
#992=DIRECTION('ref_axis',(0.,0.,-1.));
#993=DIRECTION('',(0.,0.,-1.));
#994=DIRECTION('',(1.,0.,0.));
#995=DIRECTION('',(0.,0.,-1.));
#996=DIRECTION('center_axis',(-1.,0.,0.));
#997=DIRECTION('ref_axis',(0.,0.,1.));
#998=DIRECTION('',(0.,1.,8.95341148891255E-17));
#999=DIRECTION('center_axis',(-1.,0.,0.));
#1000=DIRECTION('ref_axis',(0.,-1.,0.));
#1001=DIRECTION('',(0.,-1.,-8.95341148891255E-17));
#1002=DIRECTION('',(0.,-1.,0.));
#1003=DIRECTION('',(0.,-1.,-8.95341148891255E-17));
#1004=DIRECTION('center_axis',(0.,8.95341148891255E-17,-1.));
#1005=DIRECTION('ref_axis',(0.,-1.,-8.95341148891255E-17));
#1006=DIRECTION('',(1.,0.,0.));
#1007=DIRECTION('',(0.,1.,8.95341148891255E-17));
#1008=DIRECTION('center_axis',(-1.,0.,0.));
#1009=DIRECTION('ref_axis',(0.,0.,1.));
#1010=DIRECTION('',(0.,0.,-1.));
#1011=DIRECTION('center_axis',(0.,0.,1.));
#1012=DIRECTION('ref_axis',(0.,-1.,0.));
#1013=DIRECTION('',(0.,-1.,0.));
#1014=DIRECTION('center_axis',(0.,0.,1.));
#1015=DIRECTION('ref_axis',(0.,-1.,0.));
#1016=DIRECTION('',(1.,0.,0.));
#1017=DIRECTION('center_axis',(0.,1.,0.));
#1018=DIRECTION('ref_axis',(0.,0.,1.));
#1019=DIRECTION('',(0.,0.,-1.));
#1020=DIRECTION('center_axis',(1.,0.,0.));
#1021=DIRECTION('ref_axis',(0.,0.,-1.));
#1022=CARTESIAN_POINT('',(0.,0.,0.));
#1023=CARTESIAN_POINT('Origin',(31.7,25.3,-2.5));
#1024=CARTESIAN_POINT('',(21.7,24.15,-2.5));
#1025=CARTESIAN_POINT('Origin',(21.7,25.3,-2.5));
#1026=CARTESIAN_POINT('',(11.7,24.15,-2.5));
#1027=CARTESIAN_POINT('',(31.7,24.15,-2.5));
#1028=CARTESIAN_POINT('Origin',(11.7,25.3,-2.5));
#1029=CARTESIAN_POINT('Origin',(31.7,25.3,-2.5));
#1030=CARTESIAN_POINT('',(31.7,24.05,-2.5));
#1031=CARTESIAN_POINT('Origin',(31.7,25.3,-2.5));
#1032=CARTESIAN_POINT('',(11.7,24.05,-2.5));
#1033=CARTESIAN_POINT('',(31.7,24.05,-2.5));
#1034=CARTESIAN_POINT('Origin',(11.7,25.3,-2.5));
#1035=CARTESIAN_POINT('Origin',(11.7,25.3,-2.5));
#1036=CARTESIAN_POINT('Origin',(31.7,-0.500000007450581,-2.5000000372529));
#1037=CARTESIAN_POINT('',(21.7,-1.65000000745058,-2.5000000372529));
#1038=CARTESIAN_POINT('Origin',(21.7,-0.500000007450581,-2.5000000372529));
#1039=CARTESIAN_POINT('',(11.7,-1.65000000745058,-2.5000000372529));
#1040=CARTESIAN_POINT('',(31.7,-1.65000000745058,-2.5000000372529));
#1041=CARTESIAN_POINT('Origin',(11.7,-0.500000007450581,-2.5000000372529));
#1042=CARTESIAN_POINT('Origin',(31.7,-0.500000007450581,-2.5000000372529));
#1043=CARTESIAN_POINT('',(31.7,-1.75000000745058,-2.5000000372529));
#1044=CARTESIAN_POINT('Origin',(31.7,-0.500000007450581,-2.5000000372529));
#1045=CARTESIAN_POINT('',(11.7,-1.75000000745058,-2.5000000372529));
#1046=CARTESIAN_POINT('',(31.7,-1.75000000745058,-2.5000000372529));
#1047=CARTESIAN_POINT('Origin',(11.7,-0.500000007450581,-2.5000000372529));
#1048=CARTESIAN_POINT('Origin',(11.7,-0.500000007450581,-2.5000000372529));
#1049=CARTESIAN_POINT('Origin',(1.4,12.1499999552965,-11.2224219505586));
#1050=CARTESIAN_POINT('',(1.4,16.6499999552965,-11.2224219505586));
#1051=CARTESIAN_POINT('Origin',(1.4,12.1499999552965,-11.2224219505586));
#1052=CARTESIAN_POINT('',(3.4,16.6499999552965,-11.2224219505586));
#1053=CARTESIAN_POINT('',(1.4,16.6499999552965,-11.2224219505586));
#1054=CARTESIAN_POINT('Origin',(3.4,12.1499999552965,-11.2224219505586));
#1055=CARTESIAN_POINT('Origin',(3.4,12.1499999552965,-11.2224219505586));
#1056=CARTESIAN_POINT('',(3.4,14.6499999552965,-11.2224219505586));
#1057=CARTESIAN_POINT('Origin',(3.4,12.1499999552965,-11.2224219505586));
#1058=CARTESIAN_POINT('Origin',(31.7,12.1499999552965,-11.2224219505586));
#1059=CARTESIAN_POINT('',(31.7,7.64999995529652,-11.2224219505586));
#1060=CARTESIAN_POINT('Origin',(31.7,12.1499999552965,-11.2224219505586));
#1061=CARTESIAN_POINT('',(29.7,7.64999995529652,-11.2224219505586));
#1062=CARTESIAN_POINT('',(31.7,7.64999995529652,-11.2224219505586));
#1063=CARTESIAN_POINT('Origin',(29.7,12.1499999552965,-11.2224219505586));
#1064=CARTESIAN_POINT('Origin',(29.7,12.1499999552965,-11.2224219505586));
#1065=CARTESIAN_POINT('',(29.7,14.6499999552965,-11.2224219505586));
#1066=CARTESIAN_POINT('Origin',(29.7,12.1499999552965,-11.2224219505586));
#1067=CARTESIAN_POINT('Origin',(26.7,12.1499999552965,-11.2224219505586));
#1068=CARTESIAN_POINT('',(6.4,14.6499999552965,-11.2224219505586));
#1069=CARTESIAN_POINT('Origin',(6.4,12.1499999552965,-11.2224219505586));
#1070=CARTESIAN_POINT('',(26.7,14.6499999552965,-11.2224219505586));
#1071=CARTESIAN_POINT('Origin',(26.7,12.1499999552965,-11.2224219505586));
#1072=CARTESIAN_POINT('',(26.7,14.6499999552965,-11.2224219505586));
#1073=CARTESIAN_POINT('',(26.7,14.6499999552965,-11.2224219505586));
#1074=CARTESIAN_POINT('Origin',(26.7,12.1499999552965,-11.2224219505586));
#1075=CARTESIAN_POINT('Origin',(16.55,12.3999999776483,-35.0000000745058));
#1076=CARTESIAN_POINT('',(31.7,-3.00000004470348,-35.0000000745058));
#1077=CARTESIAN_POINT('',(1.4,-3.00000004470348,-35.0000000745058));
#1078=CARTESIAN_POINT('',(31.7,-3.00000004470348,-35.0000000745058));
#1079=CARTESIAN_POINT('',(1.4,27.8,-35.0000000745058));
#1080=CARTESIAN_POINT('',(1.4,-3.00000004470348,-35.0000000745058));
#1081=CARTESIAN_POINT('',(31.7,27.8,-35.0000000745058));
#1082=CARTESIAN_POINT('',(1.4,27.8,-35.0000000745058));
#1083=CARTESIAN_POINT('',(31.7,27.8,-35.0000000745058));
#1084=CARTESIAN_POINT('',(6.4,1.99999995529652,-35.0000000745058));
#1085=CARTESIAN_POINT('',(26.7,1.99999995529652,-35.0000000745058));
#1086=CARTESIAN_POINT('',(6.4,1.99999995529652,-35.0000000745058));
#1087=CARTESIAN_POINT('',(26.7,22.2999999552965,-35.0000000745058));
#1088=CARTESIAN_POINT('',(26.7,1.99999995529652,-35.0000000745058));
#1089=CARTESIAN_POINT('',(6.4,22.2999999552965,-35.0000000745058));
#1090=CARTESIAN_POINT('',(26.7,22.2999999552965,-35.0000000745058));
#1091=CARTESIAN_POINT('',(6.4,22.2999999552965,-35.0000000745058));
#1092=CARTESIAN_POINT('Origin',(26.7,1.99999995529652,-5.00000007450581));
#1093=CARTESIAN_POINT('',(26.7,22.2999999552965,-5.00000007450581));
#1094=CARTESIAN_POINT('',(26.7,1.99999995529652,-5.00000007450581));
#1095=CARTESIAN_POINT('',(26.7,14.8999999776483,-5.00000007450581));
#1096=CARTESIAN_POINT('',(26.7,22.2999999552965,-5.00000007450581));
#1097=CARTESIAN_POINT('',(26.7,1.99999995529652,-5.00000007450581));
#1098=CARTESIAN_POINT('Origin',(6.4,1.99999995529652,-5.00000007450581));
#1099=CARTESIAN_POINT('',(6.4,1.99999995529652,-5.00000007450581));
#1100=CARTESIAN_POINT('',(19.05,1.99999995529652,-5.00000007450581));
#1101=CARTESIAN_POINT('',(6.4,1.99999995529652,-5.00000007450581));
#1102=CARTESIAN_POINT('Origin',(6.4,22.2999999552965,-5.00000007450581));
#1103=CARTESIAN_POINT('',(6.4,22.2999999552965,-5.00000007450581));
#1104=CARTESIAN_POINT('',(6.4,25.0499999776483,-5.00000007450581));
#1105=CARTESIAN_POINT('',(6.4,22.2999999552965,-5.00000007450581));
#1106=CARTESIAN_POINT('Origin',(26.7,22.2999999552965,-5.00000007450581));
#1107=CARTESIAN_POINT('',(29.2,22.2999999552965,-5.00000007450581));
#1108=CARTESIAN_POINT('Origin',(1.4,-3.00000004470348,-5.00000007450581));
#1109=CARTESIAN_POINT('',(1.4,27.8,-5.00000007450581));
#1110=CARTESIAN_POINT('',(1.4,-3.00000004470348,-5.00000007450581));
#1111=CARTESIAN_POINT('',(1.39999999999999,12.3999999776483,-5.00000007450581));
#1112=CARTESIAN_POINT('',(1.4,27.8,-5.00000007450581));
#1113=CARTESIAN_POINT('',(1.4,-3.00000004470348,-5.00000007450581));
#1114=CARTESIAN_POINT('Origin',(31.7,27.8,-5.00000007450581));
#1115=CARTESIAN_POINT('',(-3.00000000000001,-3.00000004470348,-5.00000007450581));
#1116=CARTESIAN_POINT('',(31.7,-3.00000004470348,-5.00000007450581));
#1117=CARTESIAN_POINT('',(-3.00000000000001,27.8,-5.00000007450581));
#1118=CARTESIAN_POINT('',(-3.00000000000001,-3.00000004470348,-5.00000007450581));
#1119=CARTESIAN_POINT('',(31.7,27.8,-5.00000007450581));
#1120=CARTESIAN_POINT('Origin',(0.,27.8000000447035,25.5));
#1121=CARTESIAN_POINT('',(7.70371977754894E-32,27.8,25.5));
#1122=CARTESIAN_POINT('',(7.70371977754894E-32,24.8,25.5));
#1123=CARTESIAN_POINT('',(7.70371977754894E-32,24.8,25.5));
#1124=CARTESIAN_POINT('',(0.,27.8000000447035,13.));
#1125=CARTESIAN_POINT('',(0.,27.8,11.2499999776483));
#1126=CARTESIAN_POINT('',(0.,24.8,13.));
#1127=CARTESIAN_POINT('',(0.,27.8000000447035,13.));
#1128=CARTESIAN_POINT('',(0.,24.8,35.55));
#1129=CARTESIAN_POINT('Origin',(0.,24.8,45.6));
#1130=CARTESIAN_POINT('',(0.,24.8,0.));
#1131=CARTESIAN_POINT('',(0.,24.8,0.));
#1132=CARTESIAN_POINT('',(31.7,24.8,0.));
#1133=CARTESIAN_POINT('',(0.,24.8,0.));
#1134=CARTESIAN_POINT('',(31.7,24.8,25.5));
#1135=CARTESIAN_POINT('',(31.7,24.8,0.));
#1136=CARTESIAN_POINT('',(24.8042207792208,24.8,45.6));
#1137=CARTESIAN_POINT('',(26.9461045411914,24.8,39.3567804540668));
#1138=CARTESIAN_POINT('',(6.89577922077922,24.8,45.6));
#1139=CARTESIAN_POINT('',(0.,24.8,45.6));
#1140=CARTESIAN_POINT('',(7.04730914630632,24.8,46.0416834422304));
#1141=CARTESIAN_POINT('Origin',(0.,0.,25.5));
#1142=CARTESIAN_POINT('',(7.70371977754894E-32,0.,25.5));
#1143=CARTESIAN_POINT('',(7.70371977754894E-32,-3.00000004470348,25.5));
#1144=CARTESIAN_POINT('',(7.70371977754894E-32,24.8,25.5));
#1145=CARTESIAN_POINT('',(0.,0.,13.));
#1146=CARTESIAN_POINT('',(0.,0.,12.75));
#1147=CARTESIAN_POINT('',(0.,-3.00000004470348,13.));
#1148=CARTESIAN_POINT('',(0.,0.,13.));
#1149=CARTESIAN_POINT('',(0.,-3.00000004470348,37.05));
#1150=CARTESIAN_POINT('Origin',(0.,0.,0.));
#1151=CARTESIAN_POINT('',(6.89577922077922,0.,45.6));
#1152=CARTESIAN_POINT('',(0.0489361576710862,2.77555756156289E-16,25.6426404091107));
#1153=CARTESIAN_POINT('',(24.8042207792208,0.,45.6));
#1154=CARTESIAN_POINT('',(0.,0.,45.6));
#1155=CARTESIAN_POINT('',(31.7,0.,25.5));
#1156=CARTESIAN_POINT('',(33.9444775298266,2.77555756156289E-16,18.957737420947));
#1157=CARTESIAN_POINT('',(31.7,0.,0.));
#1158=CARTESIAN_POINT('',(31.7,0.,45.6));
#1159=CARTESIAN_POINT('',(0.,0.,0.));
#1160=CARTESIAN_POINT('',(0.,0.,0.));
#1161=CARTESIAN_POINT('',(0.,0.,45.6));
#1162=CARTESIAN_POINT('Origin',(31.7,-3.00000004470348,25.5));
#1163=CARTESIAN_POINT('',(31.7,27.8,25.5));
#1164=CARTESIAN_POINT('',(31.7,4.69999996647239,25.5));
#1165=CARTESIAN_POINT('',(23.775,27.8,48.6));
#1166=CARTESIAN_POINT('',(34.4048968122555,27.8,17.6156950961385));
#1167=CARTESIAN_POINT('',(23.775,-3.00000004470348,48.6));
#1168=CARTESIAN_POINT('',(23.775,12.3999999776483,48.6));
#1169=CARTESIAN_POINT('',(31.7,-3.00000004470348,25.5));
#1170=CARTESIAN_POINT('',(26.4856852656233,-3.00000004470348,40.6988227588772));
#1171=CARTESIAN_POINT('',(31.7,4.69999996647239,25.5));
#1172=CARTESIAN_POINT('',(24.8042207792208,-1.50000002235174,45.6));
#1173=CARTESIAN_POINT('Origin',(7.925,-3.00000004470348,48.6));
#1174=CARTESIAN_POINT('',(6.89577922077922,-1.50000002235174,45.6));
#1175=CARTESIAN_POINT('',(7.925,-3.00000004470348,48.6));
#1176=CARTESIAN_POINT('',(7.50772842187443,-3.00000004470348,47.3837257470409));
#1177=CARTESIAN_POINT('',(7.925,27.8,48.6));
#1178=CARTESIAN_POINT('',(7.925,12.3999999776483,48.6));
#1179=CARTESIAN_POINT('',(-0.411483124757803,27.8,24.3005980843022));
#1180=CARTESIAN_POINT('Origin',(0.,0.,45.6));
#1181=CARTESIAN_POINT('Origin',(0.,-3.00000004470348,48.6));
#1182=CARTESIAN_POINT('',(-3.,-3.00000004470348,13.));
#1183=CARTESIAN_POINT('',(-0.75,-3.00000004470348,13.));
#1184=CARTESIAN_POINT('',(-3.00000000000001,-3.00000004470348,-5.00000007450581));
#1185=CARTESIAN_POINT('',(31.7,-3.00000004470348,-3.00000004470348));
#1186=CARTESIAN_POINT('',(0.,-3.00000004470348,48.6));
#1187=CARTESIAN_POINT('Origin',(21.7,-0.500000007450581,-2.5000000372529));
#1188=CARTESIAN_POINT('Origin',(21.7,25.3,-2.5));
#1189=CARTESIAN_POINT('Origin',(31.7,27.8,-5.00000007450581));
#1190=CARTESIAN_POINT('Origin',(0.,1.9,5.4));
#1191=CARTESIAN_POINT('',(0.,1.9,5.4));
#1192=CARTESIAN_POINT('',(0.,1.9,13.));
#1193=CARTESIAN_POINT('',(0.,1.9,14.0999999888241));
#1194=CARTESIAN_POINT('',(-1.8,1.9,5.4));
#1195=CARTESIAN_POINT('',(0.,1.9,5.4));
#1196=CARTESIAN_POINT('',(-1.8,1.9,13.));
#1197=CARTESIAN_POINT('',(-1.8,1.9,5.4));
#1198=CARTESIAN_POINT('',(0.,1.9,13.));
#1199=CARTESIAN_POINT('Origin',(0.,22.9,5.4));
#1200=CARTESIAN_POINT('',(0.,22.9,5.4));
#1201=CARTESIAN_POINT('',(0.,17.6500000111759,5.4));
#1202=CARTESIAN_POINT('',(-1.8,22.9,5.4));
#1203=CARTESIAN_POINT('',(0.,22.9,5.4));
#1204=CARTESIAN_POINT('',(-1.8,22.9,5.4));
#1205=CARTESIAN_POINT('Origin',(0.,22.9,13.));
#1206=CARTESIAN_POINT('',(0.,22.9,13.));
#1207=CARTESIAN_POINT('',(0.,22.9,17.8999999888241));
#1208=CARTESIAN_POINT('',(-1.8,22.9,13.));
#1209=CARTESIAN_POINT('',(0.,22.9,13.));
#1210=CARTESIAN_POINT('',(-1.8,22.9,13.));
#1211=CARTESIAN_POINT('Origin',(-1.8,12.4,9.2));
#1212=CARTESIAN_POINT('',(-1.8,18.6,13.));
#1213=CARTESIAN_POINT('Origin',(0.,12.4000000223517,22.7999999776483));
#1214=CARTESIAN_POINT('',(0.,18.6000000111759,13.));
#1215=CARTESIAN_POINT('',(0.,0.,0.));
#1216=CARTESIAN_POINT('',(0.,18.6000000111759,13.));
#1217=CARTESIAN_POINT('Origin',(0.,24.8,13.));
#1218=CARTESIAN_POINT('',(-3.,27.8000000447035,13.));
#1219=CARTESIAN_POINT('',(-0.75,27.8,13.));
#1220=CARTESIAN_POINT('',(-3.,18.6000000111759,13.));
#1221=CARTESIAN_POINT('Origin',(-3.,12.4000000223517,22.7999999776483));
#1222=CARTESIAN_POINT('',(-3.,27.8000000447035,-3.00000004470348));
#1223=CARTESIAN_POINT('Origin',(0.,24.8,0.));
#1224=CARTESIAN_POINT('',(31.7,0.,0.));
#1225=CARTESIAN_POINT('Origin',(0.,27.8,48.6));
#1226=CARTESIAN_POINT('',(0.,27.8,48.6));
#1227=CARTESIAN_POINT('Origin',(0.,27.8,-3.00000004470348));
#1228=CARTESIAN_POINT('',(31.7,27.8,0.));
#1229=CARTESIAN_POINT('Origin',(31.7,12.3999999776483,22.7999999776483));
#1230=UNCERTAINTY_MEASURE_WITH_UNIT(LENGTH_MEASURE(0.01),#1234,
'DISTANCE_ACCURACY_VALUE',
'Maximum model space distance between geometric entities at asserted c
onnectivities');
#1231=UNCERTAINTY_MEASURE_WITH_UNIT(LENGTH_MEASURE(0.01),#1234,
'DISTANCE_ACCURACY_VALUE',
'Maximum model space distance between geometric entities at asserted c
onnectivities');
#1232=(
GEOMETRIC_REPRESENTATION_CONTEXT(3)
GLOBAL_UNCERTAINTY_ASSIGNED_CONTEXT((#1230))
GLOBAL_UNIT_ASSIGNED_CONTEXT((#1234,#1236,#1237))
REPRESENTATION_CONTEXT('','3D')
);
#1233=(
GEOMETRIC_REPRESENTATION_CONTEXT(3)
GLOBAL_UNCERTAINTY_ASSIGNED_CONTEXT((#1231))
GLOBAL_UNIT_ASSIGNED_CONTEXT((#1234,#1236,#1237))
REPRESENTATION_CONTEXT('','3D')
);
#1234=(
LENGTH_UNIT()
NAMED_UNIT(*)
SI_UNIT(.MILLI.,.METRE.)
);
#1235=(
LENGTH_UNIT()
NAMED_UNIT(*)
SI_UNIT($,.METRE.)
);
#1236=(
NAMED_UNIT(*)
PLANE_ANGLE_UNIT()
SI_UNIT($,.RADIAN.)
);
#1237=(
NAMED_UNIT(*)
SI_UNIT($,.STERADIAN.)
SOLID_ANGLE_UNIT()
);
#1238=SHAPE_DEFINITION_REPRESENTATION(#1239,#1240);
#1239=PRODUCT_DEFINITION_SHAPE('',$,#1242);
#1240=SHAPE_REPRESENTATION('',(#764),#1232);
#1241=PRODUCT_DEFINITION_CONTEXT('part definition',#1246,'design');
#1242=PRODUCT_DEFINITION('shouder_first_part_v2',
'shouder_first_part_v2 v4',#1243,#1241);
#1243=PRODUCT_DEFINITION_FORMATION('',$,#1248);
#1244=PRODUCT_RELATED_PRODUCT_CATEGORY('shouder_first_part_v2 v4',
'shouder_first_part_v2 v4',(#1248));
#1245=APPLICATION_PROTOCOL_DEFINITION('international standard',
'automotive_design',2009,#1246);
#1246=APPLICATION_CONTEXT(
'Core Data for Automotive Mechanical Design Process');
#1247=PRODUCT_CONTEXT('part definition',#1246,'mechanical');
#1248=PRODUCT('shouder_first_part_v2','shouder_first_part_v2 v4',$,(#1247));
#1249=PRESENTATION_STYLE_ASSIGNMENT((#1251));
#1250=PRESENTATION_STYLE_ASSIGNMENT((#1252));
#1251=SURFACE_STYLE_USAGE(.BOTH.,#1253);
#1252=SURFACE_STYLE_USAGE(.BOTH.,#1254);
#1253=SURFACE_SIDE_STYLE('',(#1255));
#1254=SURFACE_SIDE_STYLE('',(#1256));
#1255=SURFACE_STYLE_FILL_AREA(#1257);
#1256=SURFACE_STYLE_FILL_AREA(#1258);
#1257=FILL_AREA_STYLE('Steel - Satin',(#1259));
#1258=FILL_AREA_STYLE('ABS (White)',(#1260));
#1259=FILL_AREA_STYLE_COLOUR('Steel - Satin',#1261);
#1260=FILL_AREA_STYLE_COLOUR('ABS (White)',#1262);
#1261=COLOUR_RGB('Steel - Satin',0.627450980392157,0.627450980392157,0.627450980392157);
#1262=COLOUR_RGB('ABS (White)',0.96078431372549,0.705882352941177,0.152941176470588);
ENDSEC;
END-ISO-10303-21;
